<?xml version="1.0" standalone="no"?>
<!DOCTYPE svg PUBLIC "-//W3C//DTD SVG 20010904//EN"
 "http://www.w3.org/TR/2001/REC-SVG-20010904/DTD/svg10.dtd">
<svg version="1.0" xmlns="http://www.w3.org/2000/svg"
 width="500.000000pt" height="500.000000pt" viewBox="0 0 500.000000 500.000000"
 preserveAspectRatio="xMidYMid meet">
<metadata>
Created by potrace 1.11, written by Peter Selinger 2001-2013
</metadata>
<g transform="translate(0.000000,500.000000) scale(0.100000,-0.100000)"
fill="#000000" stroke="none">
<path d="M0 2500 l0 -2500 2500 0 2500 0 0 2500 0 2500 -2500 0 -2500 0 0
-2500z m1184 1174 c13 -5 16 -22 16 -80 0 -66 2 -74 19 -74 10 0 32 -3 48 -6
30 -6 30 -6 43 60 15 78 26 90 79 81 69 -12 75 -21 62 -99 -7 -38 -9 -71 -6
-75 4 -3 23 -11 43 -16 l37 -11 27 61 c30 66 42 73 100 54 57 -19 63 -37 33
-108 -14 -33 -25 -62 -25 -65 0 -6 69 -46 80 -46 5 0 11 8 15 18 3 9 21 34 39
56 26 30 37 37 55 31 31 -9 81 -54 81 -72 0 -9 -16 -38 -35 -64 -19 -27 -35
-53 -35 -57 0 -5 14 -21 31 -36 34 -31 30 -32 103 37 17 15 38 27 47 27 20 0
79 -70 79 -93 0 -8 -23 -36 -51 -61 l-50 -45 26 -36 c15 -19 30 -35 33 -35 3
0 30 14 59 30 31 18 62 28 72 25 23 -7 64 -80 57 -103 -3 -9 -29 -30 -58 -46
-29 -16 -54 -30 -56 -32 -2 -1 13 -46 33 -99 20 -53 42 -124 48 -158 l13 -62
39 3 c22 1 51 5 65 8 41 8 60 -14 62 -73 1 -29 0 -55 -4 -58 -3 -3 -23 -8 -44
-11 -22 -3 -54 -7 -71 -10 l-33 -5 0 -79 c0 -43 -7 -114 -15 -157 -8 -43 -15
-81 -15 -85 0 -3 29 -16 64 -28 35 -11 67 -27 69 -34 7 -17 -15 -92 -31 -108
-9 -9 -22 -9 -59 1 -27 7 -58 15 -71 18 -18 4 -25 -1 -37 -31 -8 -19 -15 -39
-15 -44 0 -4 25 -21 55 -37 62 -34 70 -58 38 -114 -26 -44 -46 -47 -107 -12
-29 17 -57 31 -62 31 -5 0 -20 -16 -33 -36 l-25 -36 52 -47 c29 -26 52 -54 52
-62 0 -16 -70 -89 -86 -89 -6 0 -35 21 -63 46 l-52 47 -34 -33 -34 -33 40 -56
c25 -36 38 -63 34 -73 -7 -17 -77 -68 -94 -68 -5 0 -27 21 -47 47 -21 27 -41
52 -45 56 -4 5 -25 -1 -48 -12 l-41 -21 25 -56 c34 -77 32 -90 -15 -114 -65
-33 -77 -29 -111 46 -26 58 -32 64 -52 58 -59 -18 -68 -24 -63 -42 3 -9 10
-38 15 -64 10 -59 2 -72 -59 -86 -63 -15 -67 -11 -94 111 -6 24 -10 27 -51 27
l-45 0 0 -67 c0 -38 -5 -75 -10 -83 -10 -16 -112 -22 -127 -7 -4 5 -10 41 -13
80 l-5 72 -45 0 -44 0 -12 -59 c-15 -75 -29 -87 -90 -73 -59 14 -66 29 -49
103 13 53 12 60 -2 72 -9 6 -22 12 -29 12 -7 0 -19 3 -28 6 -12 5 -23 -10 -46
-60 -33 -75 -45 -79 -110 -46 -46 24 -50 42 -20 109 27 60 26 68 -19 91 -22
11 -42 24 -46 30 -7 11 9 45 33 72 14 17 17 17 46 -1 192 -117 437 -176 634
-152 266 33 458 125 642 311 140 140 234 312 276 503 22 96 22 327 1 422 -31
138 -101 297 -172 391 l-24 31 29 28 30 29 -63 65 c-34 36 -65 67 -68 69 -3 1
-18 -9 -33 -23 l-28 -26 -41 34 c-112 91 -251 160 -405 199 -71 18 -115 22
-237 22 -200 0 -310 -27 -484 -120 -46 -24 -86 -44 -90 -44 -7 0 -51 66 -51
77 0 5 21 21 48 37 26 16 49 31 50 32 2 1 -8 30 -23 63 -15 33 -25 67 -21 76
5 14 85 55 107 55 5 0 23 -28 40 -62 17 -35 33 -65 35 -67 2 -2 22 1 45 8 41
12 41 13 35 49 -21 115 -22 111 17 127 44 18 81 19 95 3 6 -7 16 -41 23 -76
13 -63 14 -64 42 -58 16 3 38 6 48 6 17 0 19 8 19 68 0 40 5 73 12 80 13 13
85 16 112 6z m2764 -6 c7 -7 12 -40 12 -80 0 -64 1 -68 23 -68 12 0 32 -3 43
-6 19 -5 23 1 39 66 10 39 24 74 31 77 8 3 37 0 65 -7 l51 -13 -5 -56 c-3 -31
-8 -66 -12 -77 -5 -18 -1 -23 26 -33 56 -19 64 -15 92 49 23 53 29 60 54 60
35 0 93 -34 93 -55 0 -8 -11 -42 -24 -75 l-24 -60 49 -26 c27 -15 49 -31 49
-36 0 -13 -44 -78 -53 -78 -5 0 -36 15 -70 34 -171 95 -316 131 -517 130 -178
-1 -293 -28 -445 -104 -635 -315 -771 -1158 -267 -1656 162 -160 354 -254 591
-290 217 -32 508 31 673 147 14 11 28 19 31 19 10 0 57 -82 52 -90 -4 -6 -24
-19 -45 -30 -21 -11 -41 -24 -44 -29 -3 -4 5 -36 19 -69 14 -34 22 -67 19 -75
-6 -18 -68 -47 -98 -47 -19 0 -28 12 -51 66 -21 50 -31 64 -44 59 -9 -4 -29
-9 -45 -12 -28 -6 -28 -7 -21 -52 5 -25 8 -61 9 -80 1 -33 -1 -35 -48 -47 -32
-8 -56 -10 -67 -4 -15 9 -39 84 -39 125 0 10 -11 15 -34 15 -62 0 -66 -5 -66
-81 0 -77 -10 -89 -72 -89 -55 0 -67 16 -70 95 l-3 70 -46 3 c-45 3 -46 2 -53
-29 -3 -18 -11 -51 -17 -72 l-10 -40 -54 6 c-30 3 -60 9 -66 13 -11 7 -9 57 6
130 6 29 5 31 -35 43 -23 7 -43 11 -45 9 -1 -2 -17 -31 -34 -65 -17 -35 -37
-63 -44 -63 -26 0 -97 36 -103 52 -3 10 7 45 22 78 15 33 25 62 23 63 -2 2
-21 13 -41 24 l-37 22 -41 -55 c-22 -30 -48 -54 -58 -54 -10 0 -34 11 -55 25
-47 32 -47 57 -2 114 19 24 35 47 35 51 0 9 -54 60 -64 60 -5 0 -28 -18 -52
-40 -24 -22 -51 -40 -61 -40 -25 0 -83 60 -83 85 0 14 19 38 50 64 l50 42 -27
39 -26 40 -55 -30 c-74 -40 -92 -39 -119 10 -13 21 -23 46 -23 55 0 8 26 32
58 52 31 20 58 37 59 38 5 3 -30 85 -36 85 -4 0 -33 -9 -64 -20 -71 -25 -90
-17 -107 45 -16 57 -7 69 69 92 31 9 57 18 59 19 2 1 -4 36 -12 78 -9 41 -16
116 -16 165 l0 90 -70 7 c-81 8 -95 19 -86 71 14 79 10 75 94 72 l75 -4 23 91
c13 50 34 117 49 149 14 32 25 61 25 66 0 4 -25 22 -56 39 -30 18 -58 39 -61
46 -3 8 7 34 21 59 32 54 49 56 121 15 l53 -30 27 36 28 37 -51 48 c-29 27
-52 55 -52 62 0 23 61 87 83 87 12 0 43 -20 68 -44 l46 -45 37 32 36 32 -40
55 c-21 30 -40 60 -40 67 0 18 72 73 97 73 20 0 30 -10 94 -102 3 -5 24 2 47
15 l41 23 -24 53 c-37 80 -34 98 22 122 25 11 53 17 61 14 7 -3 26 -32 40 -65
29 -65 29 -65 85 -49 29 8 37 14 33 27 -12 38 -24 116 -19 129 6 15 75 36 106
31 18 -2 25 -16 41 -76 17 -66 21 -73 40 -68 12 3 31 6 44 6 21 0 22 4 22 68
0 40 5 73 12 80 16 16 110 16 126 0z m-2563 -342 c50 -14 127 -43 171 -65 80
-40 204 -124 204 -138 0 -7 -110 -113 -250 -240 l-45 -41 -55 32 c-171 100
-359 110 -528 29 -41 -19 -75 -33 -76 -31 -5 6 -70 100 -145 210 -40 59 -70
112 -67 117 13 21 155 90 236 116 113 36 190 45 340 40 94 -3 148 -10 215 -29z
m2736 4 c79 -20 241 -90 283 -122 19 -15 11 -30 -116 -212 -4 -7 -30 2 -66 22
-100 53 -218 82 -336 82 -200 0 -360 -66 -501 -205 -93 -92 -145 -176 -181
-292 l-26 -82 -42 -6 c-22 -3 -66 -9 -96 -13 l-55 -7 -3 -102 -3 -102 33 -5
c18 -4 62 -10 97 -16 65 -9 81 -20 81 -52 0 -30 60 -169 95 -222 72 -108 181
-201 300 -256 109 -50 171 -64 295 -64 126 -1 217 20 324 74 87 43 72 51 161
-83 67 -101 71 -91 -50 -150 -100 -49 -183 -76 -294 -92 -113 -17 -173 -18
-261 -5 -233 36 -417 128 -567 281 -151 156 -222 290 -268 503 -26 118 -17
330 19 450 111 371 421 643 796 697 93 13 287 3 381 -21z m-2234 -222 c13 -12
23 -27 23 -33 0 -7 -48 -56 -107 -111 -59 -54 -145 -135 -191 -179 l-84 -80
36 -66 c52 -96 66 -149 66 -266 0 -80 -5 -115 -21 -160 -31 -82 -77 -150 -140
-208 -73 -67 -149 -103 -250 -121 -260 -45 -508 115 -584 376 -36 123 -22 261
38 375 41 76 137 172 210 207 168 83 375 70 521 -32 31 -22 60 -40 64 -40 4 0
93 81 197 180 105 98 192 179 194 180 3 0 15 -10 28 -22z m67 -210 c90 -140
146 -335 146 -509 0 -377 -218 -721 -562 -884 -228 -108 -525 -119 -758 -28
-72 28 -190 93 -190 105 0 8 195 296 214 316 11 11 23 8 72 -17 81 -41 168
-61 261 -61 148 0 286 57 387 158 113 114 158 215 164 368 5 121 -8 188 -53
282 l-34 71 47 42 c26 24 92 85 146 136 54 51 102 93 107 93 4 0 28 -32 53
-72z m2081 -137 c105 -46 179 -121 220 -222 l19 -46 100 -11 c56 -6 156 -17
224 -23 l122 -13 0 -53 c0 -34 -5 -55 -12 -57 -12 -4 -63 -10 -303 -38 -137
-15 -129 -11 -154 -73 -63 -151 -237 -256 -403 -242 -143 12 -278 108 -338
240 l-28 63 -109 12 c-378 43 -333 31 -333 97 0 46 3 55 18 55 42 0 399 42
417 49 11 5 26 26 34 47 37 104 132 190 256 231 62 20 209 12 270 -16z"/>
<path d="M1044 2805 c-198 -43 -335 -213 -335 -416 -1 -281 260 -486 526 -415
74 19 113 43 181 108 153 147 173 386 47 560 -63 87 -160 147 -268 167 -70 13
-73 13 -151 -4z m234 -82 c223 -105 282 -403 116 -582 -76 -82 -136 -112 -239
-119 -102 -6 -167 12 -242 69 -98 73 -146 173 -146 299 1 131 65 246 176 317
93 59 231 66 335 16z"/>
<path d="M1080 2694 c-196 -35 -312 -258 -226 -436 36 -76 111 -143 183 -164
268 -78 485 203 351 452 -23 42 -92 102 -142 124 -44 20 -125 31 -166 24z
m160 -84 c135 -69 173 -258 76 -385 -13 -17 -47 -43 -75 -59 -150 -81 -334 16
-357 189 -17 119 67 247 180 276 46 12 132 2 176 -21z"/>
<path d="M3786 2735 c-111 -31 -219 -140 -253 -254 -20 -72 -13 -179 17 -246
33 -72 122 -157 193 -183 77 -29 186 -30 262 -1 77 29 156 104 197 187 30 61
33 75 33 157 0 78 -4 98 -28 147 -79 161 -250 240 -421 193z m193 -61 c62 -18
142 -86 173 -149 50 -97 30 -245 -43 -329 -146 -165 -387 -145 -497 43 -24 41
-27 56 -27 141 0 91 2 98 35 154 42 71 91 113 162 137 66 23 128 24 197 3z"/>
<path d="M3796 2634 c-107 -33 -184 -155 -173 -274 15 -168 171 -268 341 -218
61 18 149 109 164 170 20 78 15 129 -18 194 -61 120 -180 169 -314 128z m166
-58 c80 -34 122 -107 116 -202 -3 -52 -9 -70 -34 -101 -61 -76 -140 -105 -223
-83 -178 48 -192 310 -21 384 45 19 118 20 162 2z"/>
</g>
</svg>
