<?xml version="1.0" standalone="no"?>
<!DOCTYPE svg PUBLIC "-//W3C//DTD SVG 20010904//EN"
 "http://www.w3.org/TR/2001/REC-SVG-20010904/DTD/svg10.dtd">
<svg version="1.0" xmlns="http://www.w3.org/2000/svg"
 width="734.000000pt" height="734.000000pt" viewBox="0 0 734.000000 734.000000"
 preserveAspectRatio="xMidYMid meet">
<metadata>
Created by potrace 1.11, written by Peter Selinger 2001-2013
</metadata>
<g transform="translate(0.000000,734.000000) scale(0.100000,-0.100000)"
fill="#000000" stroke="none">
<path d="M1673 6310 c-12 -10 -54 -87 -94 -169 -63 -132 -75 -150 -93 -146
-189 44 -350 64 -530 69 l-40 1 0 -99 c-1 -54 1 -101 4 -106 3 -4 50 -10 105
-14 136 -9 171 -13 295 -36 111 -20 309 -78 405 -118 85 -36 320 -156 335
-172 3 -3 25 -18 50 -34 281 -182 549 -479 719 -797 103 -194 197 -475 226
-671 3 -21 7 -53 10 -70 28 -172 17 -530 -21 -698 -3 -14 -7 -32 -9 -40 -21
-101 -67 -254 -102 -340 -3 -8 -7 -21 -9 -27 -1 -7 -32 -72 -68 -145 -146
-296 -373 -576 -615 -758 -18 -14 -45 -34 -59 -46 -54 -42 -149 -102 -232
-147 -95 -51 -290 -139 -290 -130 0 3 -6 1 -12 -4 -18 -15 -210 -71 -300 -89
-136 -26 -200 -33 -336 -38 -46 -2 -85 -6 -88 -9 -8 -8 -11 -186 -3 -199 13
-21 328 9 498 48 35 8 67 12 70 9 3 -3 40 -74 81 -158 54 -110 82 -156 101
-166 25 -14 37 -11 175 39 82 29 157 60 166 69 29 26 27 58 -13 215 -21 83
-39 158 -39 166 1 8 20 24 43 34 23 11 88 47 143 81 l102 62 113 -113 c114
-114 157 -145 188 -137 17 4 250 196 263 217 20 29 3 68 -87 203 -52 79 -95
146 -95 150 1 5 27 36 58 70 32 34 78 89 102 122 25 33 50 60 56 61 6 0 78
-31 160 -69 82 -39 156 -69 164 -67 46 8 60 24 138 163 77 136 82 148 71 175
-7 18 -57 61 -137 121 -69 50 -132 97 -139 102 -12 9 -9 23 15 80 17 39 43
110 58 158 l29 89 75 -6 c41 -3 122 -9 180 -12 136 -8 140 -5 165 137 10 57
20 111 22 119 1 8 5 38 9 65 9 71 -9 84 -186 135 -80 22 -152 43 -160 45 -13
4 -15 32 -15 175 l0 170 50 14 c28 8 86 24 130 36 124 33 165 51 179 77 10 20
7 50 -17 186 -37 210 -28 202 -197 191 -69 -4 -149 -8 -177 -8 l-53 -1 -44
125 c-24 69 -50 139 -57 157 -7 18 -11 34 -9 36 3 1 61 43 130 91 69 49 133
98 142 110 33 40 24 67 -98 274 -55 92 -45 82 -81 86 -29 4 -76 -14 -268 -103
l-70 -33 -25 29 c-14 16 -36 44 -50 62 -29 39 -74 92 -112 134 -16 16 -28 32
-28 36 0 3 43 69 95 146 71 104 95 148 95 172 0 28 -13 43 -120 135 -66 57
-132 107 -146 113 -35 13 -53 0 -189 -134 l-115 -113 -52 34 c-76 50 -195 118
-206 118 -32 0 -30 29 8 183 46 180 48 201 20 225 -22 18 -293 122 -320 122
-9 0 -26 -9 -37 -20z"/>
<path d="M5495 6279 c-71 -26 -140 -53 -152 -58 -39 -18 -37 -62 6 -236 31
-123 38 -162 28 -168 -6 -4 -68 -39 -137 -78 -69 -39 -128 -76 -131 -82 -4 -5
-62 45 -130 113 -68 67 -133 126 -144 130 -32 12 -60 -4 -186 -111 -115 -98
-126 -112 -119 -159 1 -8 44 -77 95 -154 l94 -139 -82 -96 c-45 -53 -94 -112
-108 -131 l-26 -34 -49 21 c-27 12 -92 42 -145 67 -105 49 -143 60 -169 46
-20 -11 -180 -282 -180 -305 0 -36 31 -67 159 -159 l137 -99 -44 -109 c-42
-107 -107 -328 -118 -398 -3 -19 -7 -40 -9 -47 -10 -30 -16 -125 -8 -120 5 3
32 9 59 12 27 4 56 8 64 10 8 2 31 7 50 10 19 3 36 7 38 9 3 3 8 26 18 81 19
108 80 313 120 403 156 352 335 598 609 836 275 239 670 426 1020 482 22 3 47
8 55 9 54 10 176 21 258 23 l62 2 0 104 0 104 -97 -3 c-97 -3 -219 -13 -258
-21 -11 -3 -36 -7 -55 -10 -19 -3 -64 -12 -99 -20 -36 -8 -68 -11 -71 -7 -4 5
-36 70 -71 147 -67 144 -97 187 -133 185 -11 -1 -79 -23 -151 -50z"/>
<path d="M919 5751 c-1 -9 -1 -50 -2 -91 l-1 -75 110 -2 c60 0 112 -2 116 -2
6 -1 13 -25 23 -81 6 -32 36 -216 41 -255 3 -16 9 -55 14 -85 6 -30 13 -73 16
-95 3 -22 11 -69 17 -103 l12 -64 70 -24 c156 -53 329 -159 452 -275 218 -206
349 -466 392 -774 10 -71 7 -294 -4 -350 -3 -16 -8 -43 -11 -60 -3 -16 -19
-75 -36 -129 -114 -377 -408 -685 -780 -820 -83 -31 -83 -30 -93 -116 -4 -30
-8 -66 -10 -80 -3 -14 -13 -88 -24 -165 -11 -77 -23 -157 -26 -178 -3 -20 -7
-54 -10 -75 -3 -20 -8 -52 -11 -69 l-6 -33 -124 0 c-103 0 -124 -3 -125 -15
-1 -8 -1 -44 -1 -80 0 -36 0 -71 1 -79 1 -12 16 -14 73 -11 186 9 336 34 503
82 605 174 1114 636 1352 1228 72 179 109 321 138 530 13 100 14 461 0 535 -3
19 -13 73 -21 119 -119 648 -567 1230 -1163 1509 -185 86 -411 155 -581 177
-68 9 -158 17 -222 20 -66 2 -78 0 -79 -14z"/>
<path d="M6307 5764 c-1 -1 -40 -5 -87 -9 -47 -4 -87 -8 -90 -10 -3 -2 -30 -6
-60 -10 -30 -4 -58 -9 -61 -11 -3 -2 -19 -5 -35 -8 -17 -3 -77 -20 -134 -37
-642 -190 -1163 -691 -1379 -1324 -37 -111 -69 -229 -76 -282 -2 -12 -6 -27
-10 -33 -5 -9 8 -10 51 -5 141 16 132 11 186 105 108 187 233 312 408 408 77
42 224 95 295 107 22 4 51 8 65 10 31 5 208 6 234 2 12 -2 53 19 99 50 206
141 439 216 685 222 l32 1 0 413 0 414 -61 -1 c-33 0 -61 -1 -62 -2z"/>
<path d="M736 5482 c-3 -15 -8 -52 -11 -82 -3 -30 -8 -62 -10 -70 -2 -8 -7
-40 -10 -70 -3 -30 -8 -62 -10 -70 -2 -8 -7 -40 -10 -70 -3 -30 -8 -62 -10
-70 -3 -8 -7 -40 -10 -70 -3 -30 -7 -62 -10 -70 -2 -8 -7 -39 -10 -69 -4 -30
-8 -62 -10 -71 -2 -9 -6 -39 -10 -66 -3 -27 -9 -71 -13 -98 l-7 -49 -92 -47
c-205 -106 -361 -275 -446 -486 -21 -53 -29 -81 -53 -184 -15 -65 -11 -271 7
-357 60 -287 238 -518 499 -649 41 -21 76 -38 78 -40 2 -1 25 -134 52 -295 45
-274 56 -343 65 -394 6 -39 25 -160 33 -210 l7 -50 170 0 170 0 6 45 c4 25 10
70 13 101 4 31 9 67 11 80 3 13 7 41 10 64 8 57 16 116 21 145 7 48 42 295 48
340 3 25 8 54 10 65 2 11 6 41 10 66 6 44 9 46 60 68 138 57 296 192 390 334
65 99 88 148 120 258 30 105 36 151 36 264 0 90 -1 104 -15 180 -29 166 -130
358 -252 480 -62 62 -155 135 -173 135 -5 0 -10 4 -10 8 0 4 -33 23 -74 41
l-73 34 -13 68 c-6 38 -13 79 -15 91 -1 13 -8 55 -15 93 -6 39 -14 88 -16 110
-3 22 -7 47 -9 55 -3 8 -7 33 -10 55 -4 22 -19 119 -35 215 -16 96 -32 193
-36 215 -3 22 -8 43 -10 47 -3 4 -78 7 -169 7 l-164 -1 -5 -26z m317 -1228
c108 -28 186 -73 267 -154 144 -144 203 -321 173 -518 -21 -133 -102 -284
-190 -355 -13 -10 -29 -25 -37 -33 -21 -21 -115 -70 -167 -87 -61 -21 -122
-30 -195 -29 -79 1 -112 8 -188 36 -165 63 -283 183 -348 359 -27 72 -31 95
-32 192 -1 128 21 214 81 317 75 129 244 254 368 274 22 3 42 8 44 10 11 11
170 2 224 -12z"/>
<path d="M834 4084 c-320 -66 -439 -475 -207 -707 188 -188 495 -153 638 73
44 69 64 145 60 230 -4 96 -9 120 -45 189 -87 168 -264 253 -446 215z"/>
<path d="M5457 4584 c-1 -1 -32 -5 -69 -8 -233 -24 -478 -164 -622 -356 -54
-73 -60 -83 -101 -167 -25 -51 -42 -74 -58 -78 -17 -4 -257 -44 -477 -80 -61
-10 -387 -65 -410 -69 -14 -2 -28 -5 -31 -5 -9 -2 -7 -331 2 -337 9 -5 21 -7
114 -19 22 -3 112 -17 200 -30 88 -13 180 -26 205 -29 25 -3 104 -15 175 -26
148 -22 215 -32 232 -33 6 0 25 -31 42 -69 180 -409 653 -628 1091 -506 252
70 461 243 582 483 22 44 42 82 44 84 3 3 121 24 264 47 73 12 406 65 435 70
17 2 55 9 85 14 30 5 73 12 95 16 22 3 47 8 55 9 8 2 18 4 22 4 4 1 7 77 7
170 l1 169 -37 6 c-21 3 -58 8 -83 11 -25 3 -56 8 -70 10 -14 2 -43 7 -65 9
-33 5 -192 27 -285 41 -49 7 -106 15 -150 20 -25 3 -52 8 -60 10 -8 2 -40 7
-70 11 -30 4 -64 8 -75 9 -11 2 -30 4 -42 4 -18 1 -31 18 -64 84 -163 328
-459 518 -827 531 -29 1 -54 1 -55 0z m235 -367 c204 -74 349 -240 394 -448 7
-34 7 -195 -1 -218 -3 -11 -8 -28 -10 -39 -15 -82 -94 -210 -174 -284 -232
-215 -592 -208 -816 17 -233 233 -234 598 -1 829 78 78 175 134 281 160 89 23
241 15 327 -17z"/>
<path d="M5403 4060 c-177 -48 -301 -202 -308 -383 -4 -113 35 -215 112 -299
249 -265 699 -105 719 256 4 79 -8 139 -43 211 -83 174 -291 267 -480 215z"/>
<path d="M4070 3331 c0 -30 51 -273 61 -293 5 -10 7 -18 5 -18 -6 0 64 -206
94 -275 l21 -50 -28 -22 c-15 -13 -66 -49 -113 -81 -46 -31 -102 -74 -123 -94
-50 -47 -49 -52 50 -226 100 -175 96 -174 261 -99 53 25 119 55 147 67 l49 22
21 -24 c11 -13 36 -44 55 -68 42 -52 106 -127 126 -147 18 -19 19 -16 -19 -71
-155 -222 -179 -267 -159 -299 21 -32 258 -223 277 -223 26 0 60 25 134 98 30
30 78 76 107 104 l53 50 63 -39 c56 -36 145 -87 204 -118 21 -10 21 -11 -18
-160 -47 -179 -51 -221 -21 -245 12 -9 87 -41 168 -70 138 -50 150 -53 174
-39 25 14 61 78 141 251 17 37 35 70 39 73 5 2 48 -4 97 -15 49 -10 112 -22
139 -26 28 -3 58 -8 68 -10 21 -4 173 -15 235 -17 51 -2 51 -3 50 126 l0 87
-32 1 c-74 1 -158 8 -293 25 -126 15 -403 95 -528 152 -536 243 -934 651
-1150 1182 -40 98 -88 243 -99 300 -3 14 -12 57 -20 95 -9 39 -16 73 -16 76 0
4 -39 11 -87 18 -49 6 -98 13 -110 15 -17 4 -23 0 -23 -13z"/>
<path d="M4380 3285 c0 -35 61 -258 96 -352 114 -307 329 -624 558 -828 75
-66 267 -215 278 -215 4 0 23 -11 43 -24 19 -13 79 -47 133 -74 274 -141 589
-221 887 -226 l50 -1 0 410 0 410 -65 3 c-36 1 -101 9 -145 18 -44 9 -90 18
-102 20 -35 7 -194 64 -238 86 -63 32 -157 89 -198 121 -37 28 -40 29 -180 32
-156 3 -179 6 -282 37 -259 77 -485 264 -609 503 -36 71 -37 72 -93 79 -23 3
-63 9 -88 12 -38 5 -45 4 -45 -11z"/>
</g>
</svg>
