<svg xmlns="http://www.w3.org/2000/svg" viewBox="0 0 97.63 112.44"><defs><style>.cls-1{fill:#fff;}</style></defs><title>DE_logo_square</title><g id="Layer_2" data-name="Layer 2"><g id="Layer_1-2" data-name="Layer 1"><path class="cls-1" d="M44.37,59.13l-.16-1.57a.82.82,0,0,0-.91-.73l-2.83.29,0-.16a26.21,26.21,0,0,0-2.26-7l-.07-.15,2.47-1.42a.83.83,0,0,0,.3-1.13l-.79-1.37a.83.83,0,0,0-1.13-.3L36.5,47l-.09-.13c-.34-.51-.71-1-1.14-1.56l-.1-.13,2.13-1.92a.81.81,0,0,0,.27-.57.8.8,0,0,0-.21-.59L36.3,40.9a.77.77,0,0,0-.57-.27.79.79,0,0,0-.59.2L33,42.74l-.12-.11c-.47-.46-.95-.89-1.43-1.3l-.13-.1L33,38.91a.83.83,0,0,0-.19-1.15l-1.27-.93a.83.83,0,0,0-1.15.19l-1.68,2.3-.14-.09c-.53-.33-1.09-.66-1.67-1l-.14-.07L28,35.58A.86.86,0,0,0,28,35a.83.83,0,0,0-.44-.46l-1.44-.64a.83.83,0,0,0-1.09.41l-1.16,2.61-.15-.06q-.92-.35-1.83-.6l-.16-.05.59-2.79a.76.76,0,0,0-.12-.62.81.81,0,0,0-.51-.36l-1.55-.33a.84.84,0,0,0-1,.64l-.59,2.78-.16,0c-.61-.09-1.25-.16-1.92-.2H16.3V32.38a.83.83,0,0,0-.83-.82H13.89a.82.82,0,0,0-.82.82v2.85H12.9c-.64,0-1.28.11-1.92.2l-.16,0-.59-2.79a.81.81,0,0,0-.36-.52A.84.84,0,0,0,9.25,32l-1.54.33a.81.81,0,0,0-.52.36.84.84,0,0,0-.12.62l.59,2.78-.16.05c-.62.17-1.23.37-1.83.59l-.16.05-1.16-2.6a.83.83,0,0,0-.46-.44.81.81,0,0,0-.63,0l-1.44.64a.84.84,0,0,0-.42,1.09l1.16,2.6-.15.08A25.3,25.3,0,0,0,0,39.63l1.32,1.93a23.83,23.83,0,0,1,29,1.91l1.34-1.25,3.16,3.39-1.33,1.25a23.84,23.84,0,0,1-18.91,38.4,23.7,23.7,0,0,1-13.3-4.05L0,83.15c.74.5,1.51,1,2.29,1.38l.15.07L1.28,87.21a.83.83,0,0,0,.41,1.09l1.45.64a.81.81,0,0,0,.63,0,.84.84,0,0,0,.45-.44l1.16-2.6.16.06c.6.22,1.22.43,1.83.6l.16,0-.59,2.79a.81.81,0,0,0,.11.62.87.87,0,0,0,.52.36l1.54.32a.82.82,0,0,0,1-.63l.59-2.78.17,0c.64.09,1.29.16,1.92.2h.16V90.4a.83.83,0,0,0,.82.83h1.58a.83.83,0,0,0,.83-.83V87.55h.16c.65,0,1.29-.11,1.92-.19l.16,0,.6,2.8a.82.82,0,0,0,1,.63l1.54-.32a.87.87,0,0,0,.52-.36.81.81,0,0,0,.11-.62l-.59-2.79.16,0c.68-.19,1.28-.38,1.84-.59l.16,0,1.15,2.6a.84.84,0,0,0,.46.43A.81.81,0,0,0,26,89l1.44-.64a.82.82,0,0,0,.42-1.09l-1.16-2.6.15-.08c.57-.3,1.13-.62,1.67-1l.14-.09,1.68,2.31a.8.8,0,0,0,.54.33.82.82,0,0,0,.61-.15l1.28-.92a.83.83,0,0,0,.33-.54.85.85,0,0,0-.15-.62l-1.67-2.3.13-.11c.47-.39.94-.81,1.43-1.29l.12-.11L35,82.05A.83.83,0,0,0,36.21,82l1-1.17a.76.76,0,0,0,.21-.59.77.77,0,0,0-.27-.57l-2.12-1.91.11-.13c.44-.57.82-1.07,1.14-1.55l.09-.14,2.47,1.43A.83.83,0,0,0,40,77.05l.79-1.36a.83.83,0,0,0-.3-1.13L38,73.14l.08-.15c.27-.56.54-1.15.79-1.76l.06-.15,2.71.88a.83.83,0,0,0,1-.53l.49-1.5a.83.83,0,0,0-.53-1L40,68l0-.16a26.38,26.38,0,0,0,.8-6.45c0-.26,0-.52,0-.78v-.29l2.85-.3a.8.8,0,0,0,.55-.3A.77.77,0,0,0,44.37,59.13Z"/><path class="cls-1" d="M14.62,55.62v0a5.59,5.59,0,0,0-4,1.68,5.87,5.87,0,0,0,0,8.18,5.53,5.53,0,0,0,4,1.69,5.78,5.78,0,0,0,0-11.55Z"/><path class="cls-1" d="M14.62,83.86a22.45,22.45,0,0,0,17.88-36L25.56,54.3a13.11,13.11,0,0,1-1.9,16.83,12.91,12.91,0,0,1-8.85,3.47h-.58a13.25,13.25,0,0,1-6.86-2.26L2.11,80.06A22.38,22.38,0,0,0,14.62,83.86Z"/><path class="cls-1" d="M2.12,42.72l5.14,7.55a13.15,13.15,0,0,1,15.14.64l6.93-6.48A22.46,22.46,0,0,0,2.12,42.72Z"/><path class="cls-1" d="M14.62,52.86v0a8.18,8.18,0,0,0-5.9,2.49,8.57,8.57,0,0,0,5.9,14.58,8.54,8.54,0,0,0,0-17.07Zm0,15.71h0a7,7,0,0,1-5-2.11,7.26,7.26,0,0,1,0-10.14,6.93,6.93,0,0,1,5-2.11,7.18,7.18,0,0,1,0,14.36Z"/><path class="cls-1" d="M32.88,45.54,31.63,44.2l-9.17,8.57-.48-.4a11.94,11.94,0,0,0-7.64-2.77,11.53,11.53,0,0,0-7.9,3.09A11.81,11.81,0,0,0,6,69.37a12,12,0,0,0,8.26,3.82A11.53,11.53,0,0,0,22.7,70.1a11.77,11.77,0,0,0,1.37-15.49l-.36-.5.11-.1ZM24.38,61.4a9.86,9.86,0,0,1-9.77,9.93h0a9.55,9.55,0,0,1-6.9-2.92,10.06,10.06,0,0,1,0-14,9.63,9.63,0,0,1,6.91-2.92A9.88,9.88,0,0,1,24.38,61.4Z"/><path class="cls-1" d="M92.92,83.16l-1.34-2a23.87,23.87,0,1,1,0-39.6l1.34-2c-.74-.49-1.51-1-2.29-1.37l-.15-.08,1.16-2.6a.82.82,0,0,0-.41-1.09l-1.45-.65a.83.83,0,0,0-1.08.42l-1.16,2.6-.16-.06q-.9-.33-1.83-.6l-.16,0L86,33.37a.82.82,0,0,0-.63-1l-1.54-.33a.79.79,0,0,0-.62.12.78.78,0,0,0-.36.51l-.59,2.79-.17,0q-1-.15-1.92-.21H80V32.38a.84.84,0,0,0-.24-.58.8.8,0,0,0-.58-.24H77.6a.83.83,0,0,0-.83.82v2.85h-.16c-.65,0-1.29.11-1.92.2l-.16,0-.6-2.79A.83.83,0,0,0,73,32l-1.54.33a.82.82,0,0,0-.63,1l.59,2.78-.16.05c-.69.19-1.29.38-1.84.58l-.16.06-1.15-2.6A.82.82,0,0,0,67,33.79l-1.44.64a.83.83,0,0,0-.44.46.81.81,0,0,0,0,.63l1.15,2.6-.14.08c-.56.29-1.13.62-1.67,1l-.14.08-1.68-2.31a.88.88,0,0,0-.54-.33.82.82,0,0,0-.61.15l-1.28.93A.82.82,0,0,0,60,38.83l1.67,2.3-.13.11c-.46.39-.93.81-1.43,1.29l-.12.11-2.12-1.91a.83.83,0,0,0-1.17.06L55.66,42a.83.83,0,0,0,.07,1.17L57.85,45l-.11.13c-.44.56-.82,1.07-1.14,1.55l-.09.14L54,45.43a.82.82,0,0,0-.63-.08.8.8,0,0,0-.5.38l-.79,1.37a.82.82,0,0,0,.3,1.12l2.47,1.43-.08.15a26,26,0,0,0-2.3,7l0,.16-2.85-.3a.83.83,0,0,0-.9.74L48.57,59a.81.81,0,0,0,.73.9l2.84.3v.17q0,.51,0,1a26.49,26.49,0,0,0,.77,6.33l0,.16-2.71.88a.85.85,0,0,0-.48.41.81.81,0,0,0,0,.63l.49,1.5a.81.81,0,0,0,1,.53l2.71-.88.06.16c.26.64.51,1.22.78,1.76l.07.15-2.47,1.43a.83.83,0,0,0-.38.5.79.79,0,0,0,.08.62l.79,1.37a.8.8,0,0,0,.5.38.82.82,0,0,0,.63-.08l2.46-1.42.09.14c.34.5.71,1,1.14,1.56l.1.13-2.13,1.91a.83.83,0,0,0-.27.57.8.8,0,0,0,.21.59l1.06,1.18a.81.81,0,0,0,.57.27.8.8,0,0,0,.59-.21L59.91,80l.12.12c.46.45.94.88,1.43,1.29l.12.11L59.9,83.87A.83.83,0,0,0,60.09,85l1.27.93a.85.85,0,0,0,.62.15.81.81,0,0,0,.53-.33l1.68-2.31.14.09c.57.36,1.12.68,1.67,1l.14.08L65,87.21a.82.82,0,0,0,.42,1.09l1.44.64a.84.84,0,0,0,1.09-.42l1.15-2.59.16,0c.55.21,1.15.4,1.83.6l.16,0-.59,2.8a.77.77,0,0,0,.12.62.8.8,0,0,0,.51.35l1.55.33a.83.83,0,0,0,1-.63l.59-2.79.16,0c.61.08,1.26.15,1.92.2h.16V90.4a.83.83,0,0,0,.83.82H79a.83.83,0,0,0,.82-.83V87.55H80c.64,0,1.28-.11,1.92-.19l.16,0,.59,2.8a.81.81,0,0,0,.36.51.76.76,0,0,0,.62.12l1.54-.33a.79.79,0,0,0,.52-.35.86.86,0,0,0,.12-.62l-.59-2.79.16,0c.61-.17,1.23-.37,1.83-.59l.16-.06,1.16,2.61A.81.81,0,0,0,89,89a.86.86,0,0,0,.63,0l1.44-.65a.82.82,0,0,0,.43-.45.81.81,0,0,0,0-.63l-1.16-2.6.15-.08C91.34,84.15,92.15,83.67,92.92,83.16Z"/><path class="cls-1" d="M57.7,58.8l4.36-.5A16.59,16.59,0,0,1,78.34,44.82h0a16.47,16.47,0,0,1,9.16,2.77l3.29-4.83a22.46,22.46,0,1,0,0,37.28L87.5,75.2A16.46,16.46,0,0,1,78.34,78h0A16.58,16.58,0,0,1,62,64.29l-4.53-.52,0-5Z"/><path class="cls-1" d="M87.31,59l-.14-.44a9.32,9.32,0,0,0-8.8-6.49h-.06a9.33,9.33,0,0,0-8.89,6.4l-.14.42h-.11L58.94,60.07l0,2.45,10.3,1.19.14.43a9.31,9.31,0,0,0,8.82,6.59h.1a9.3,9.3,0,0,0,8.89-6.49l.13-.43h.11l10.22-1.28V60.07Zm-2.9,8a8.52,8.52,0,0,1-5.82,2.78h-.48a8.21,8.21,0,0,1-8.21-7.93,8.48,8.48,0,0,1,2.23-6.05A8.39,8.39,0,0,1,84,55.15a8.15,8.15,0,0,1,2.67,5.79A8.44,8.44,0,0,1,84.41,67Z"/><path class="cls-1" d="M78.41,54.41A7.16,7.16,0,0,0,71.3,61.8a6.82,6.82,0,0,0,2.22,4.8,6.74,6.74,0,0,0,5,1.76A7.15,7.15,0,0,0,85.23,61a6.8,6.8,0,0,0-6.82-6.58Zm4.32,11,0,.05a6.2,6.2,0,0,1-4.51,2,6,6,0,0,1-6-5.76A6.22,6.22,0,0,1,78,55.31a6,6,0,0,1,6.31,5.76A6.15,6.15,0,0,1,82.73,65.46Z"/><path class="cls-1" d="M78.37,56.71H78.1a4.82,4.82,0,0,0-4.51,5,4.58,4.58,0,0,0,1.49,3.22,4.69,4.69,0,0,0,6.61-.38,4.74,4.74,0,0,0,1.25-3.39,4.55,4.55,0,0,0-4.57-4.41Z"/><path class="cls-1" d="M3.3,8.87H1A.75.75,0,0,1,.2,8.05V1A.75.75,0,0,1,1,.19H3.3A2.87,2.87,0,0,1,6.4,3.05V6A2.87,2.87,0,0,1,3.3,8.87ZM5,3.05A1.58,1.58,0,0,0,3.3,1.43H2.06a.37.37,0,0,0-.41.41V7.22a.37.37,0,0,0,.41.41H3.3A1.58,1.58,0,0,0,5,6Z"/><path class="cls-1" d="M15.61,8.87H10.24a.38.38,0,0,1-.42-.41V8.05a.38.38,0,0,1,.42-.42H11.8a.37.37,0,0,0,.41-.41V1.84a.37.37,0,0,0-.41-.41h-.94A.38.38,0,0,1,10.44,1V.6a.38.38,0,0,1,.42-.41H15a.38.38,0,0,1,.42.41V1a.38.38,0,0,1-.42.41h-.94a.37.37,0,0,0-.41.41V7.22a.37.37,0,0,0,.41.41h1.56a.38.38,0,0,1,.42.42v.41A.38.38,0,0,1,15.61,8.87Z"/><path class="cls-1" d="M25.64,1.82a.42.42,0,0,1-.59.15,3.76,3.76,0,0,0-1.95-.64,1.66,1.66,0,0,0-1.66,1.72V3.5a.38.38,0,0,0,.42.41h2.7a.38.38,0,0,1,.42.41v.42a.38.38,0,0,1-.42.41h-2.7a.38.38,0,0,0-.42.41v2.9a.37.37,0,0,1-.41.41h-.62A.37.37,0,0,1,20,8.46V3.05a3,3,0,0,1,3.1-3,4.81,4.81,0,0,1,2.63.85.41.41,0,0,1,.13.58Z"/><path class="cls-1" d="M35.26,1.82a.4.4,0,0,1-.58.15,3.8,3.8,0,0,0-2-.64,1.66,1.66,0,0,0-1.65,1.72V3.5a.37.37,0,0,0,.41.41h2.71a.37.37,0,0,1,.41.41v.42a.37.37,0,0,1-.41.41H31.48a.37.37,0,0,0-.41.41v2.9a.37.37,0,0,1-.41.41H30a.38.38,0,0,1-.42-.41V3.05a3,3,0,0,1,3.1-3,4.82,4.82,0,0,1,2.64.85.42.42,0,0,1,.13.58Z"/><path class="cls-1" d="M41.69,9.06a3,3,0,0,1-3.1-3v-3a3,3,0,0,1,3.1-3,2.9,2.9,0,0,1,2.74,1.64.41.41,0,0,1-.11.56l-.45.32a.37.37,0,0,1-.57-.09,1.81,1.81,0,0,0-1.61-1.1A1.67,1.67,0,0,0,40,3.05V3.5a.38.38,0,0,0,.42.41h1.91a.38.38,0,0,1,.42.41v.42a.38.38,0,0,1-.42.41H40.45a.38.38,0,0,0-.42.41V6a1.66,1.66,0,0,0,1.66,1.71A1.81,1.81,0,0,0,43.3,6.67a.38.38,0,0,1,.57-.15l.43.3a.4.4,0,0,1,.17.57A3,3,0,0,1,41.69,9.06Z"/><path class="cls-1" d="M54.12,8.87H53.5a.37.37,0,0,1-.41-.41V6.86a1.66,1.66,0,0,0-1.66-1.71H50.19a.37.37,0,0,0-.41.41v2.9a.38.38,0,0,1-.42.41h-.62a.37.37,0,0,1-.41-.41V3.05a3,3,0,0,1,3.1-3c1.77,0,3.1,1,3.1,2.67a2,2,0,0,1-.84,1.69c-.15.11-.15.26,0,.4a2.54,2.54,0,0,1,.84,2.1v1.6A.37.37,0,0,1,54.12,8.87ZM51.43,1.33a1.66,1.66,0,0,0-1.65,1.72V3.5a.37.37,0,0,0,.41.41h1.24c.49,0,1.66-.19,1.66-1.24C53.09,1.77,52.32,1.33,51.43,1.33Z"/><path class="cls-1" d="M61.21,9.06a3,3,0,0,1-3.1-3v-3a3,3,0,0,1,3.1-3A2.9,2.9,0,0,1,64,1.64a.41.41,0,0,1-.11.56l-.45.32a.37.37,0,0,1-.57-.09,1.81,1.81,0,0,0-1.61-1.1,1.67,1.67,0,0,0-1.66,1.72V3.5a.38.38,0,0,0,.42.41h1.91a.38.38,0,0,1,.42.41v.42a.38.38,0,0,1-.42.41H60a.38.38,0,0,0-.42.41V6a1.66,1.66,0,0,0,1.66,1.71,1.81,1.81,0,0,0,1.61-1.06.38.38,0,0,1,.57-.15l.43.3a.4.4,0,0,1,.17.57A3,3,0,0,1,61.21,9.06Z"/><path class="cls-1" d="M73.37,8.87h-.71c-.27,0-.42-.18-.55-.41L69.2,3.27c-.1-.19-.26-.15-.26,0V8.46a.38.38,0,0,1-.42.41H68a.38.38,0,0,1-.42-.41V.6A.38.38,0,0,1,68,.19h.71c.26,0,.41.19.55.41l2.91,5.13c.11.19.26.15.26,0V.6a.38.38,0,0,1,.42-.41h.52a.38.38,0,0,1,.42.41V8.46A.38.38,0,0,1,73.37,8.87Z"/><path class="cls-1" d="M80.5,9.06a3,3,0,0,1-3.1-3v-3a3,3,0,0,1,3.1-3,2.9,2.9,0,0,1,2.74,1.64.41.41,0,0,1-.11.56l-.45.32a.36.36,0,0,1-.56-.09,1.84,1.84,0,0,0-1.62-1.1,1.67,1.67,0,0,0-1.66,1.72V6A1.66,1.66,0,0,0,80.5,7.73a1.84,1.84,0,0,0,1.62-1.06.37.37,0,0,1,.56-.15l.43.3a.4.4,0,0,1,.17.57A3,3,0,0,1,80.5,9.06Z"/><path class="cls-1" d="M90.09,9.06A3,3,0,0,1,87,6v-3a3,3,0,0,1,3.11-3,2.9,2.9,0,0,1,2.74,1.64.42.42,0,0,1-.11.56l-.45.32a.37.37,0,0,1-.57-.09,1.82,1.82,0,0,0-1.61-1.1,1.66,1.66,0,0,0-1.66,1.72V3.5a.38.38,0,0,0,.42.41h1.91a.38.38,0,0,1,.42.41v.42a.38.38,0,0,1-.42.41H88.85a.38.38,0,0,0-.42.41V6a1.66,1.66,0,0,0,1.66,1.71A1.81,1.81,0,0,0,91.7,6.67a.38.38,0,0,1,.57-.15l.43.3a.4.4,0,0,1,.17.57A3,3,0,0,1,90.09,9.06Z"/><path class="cls-1" d="M22.7,23.25a3,3,0,0,1-3.1-3.05v-3a3,3,0,0,1,3.1-3,2.93,2.93,0,0,1,2.75,1.63.43.43,0,0,1-.12.57l-.45.32a.35.35,0,0,1-.56-.1,1.84,1.84,0,0,0-1.62-1.09,1.66,1.66,0,0,0-1.65,1.71v.45a.38.38,0,0,0,.41.42h1.92a.37.37,0,0,1,.41.41v.42a.37.37,0,0,1-.41.41H21.46a.37.37,0,0,0-.41.41v.45a1.65,1.65,0,0,0,1.65,1.71,1.84,1.84,0,0,0,1.62-1.05c.17-.24.36-.28.56-.15l.44.3a.39.39,0,0,1,.16.57A2.94,2.94,0,0,1,22.7,23.25Z"/><path class="cls-1" d="M34.87,23.06h-.72c-.26,0-.41-.19-.54-.41l-2.92-5.19c-.09-.19-.26-.15-.26,0v5.19a.37.37,0,0,1-.41.41h-.53a.37.37,0,0,1-.41-.41V14.79a.37.37,0,0,1,.41-.41h.71c.27,0,.42.18.55.41l2.91,5.13c.12.19.27.15.27,0V14.79a.37.37,0,0,1,.41-.41h.53a.37.37,0,0,1,.41.41v7.86A.37.37,0,0,1,34.87,23.06Z"/><path class="cls-1" d="M41.54,23.25a3,3,0,0,1-3.1-3.05v-3a3,3,0,0,1,3.1-3,2.91,2.91,0,0,1,2.74,1.63.42.42,0,0,1-.11.57l-.45.32a.36.36,0,0,1-.57-.1,1.83,1.83,0,0,0-1.61-1.09,1.66,1.66,0,0,0-1.66,1.71v3a1.66,1.66,0,1,0,3.31,0v-.45a.37.37,0,0,0-.41-.41H42a.37.37,0,0,1-.41-.41v-.42A.37.37,0,0,1,42,18.1h2.28a.37.37,0,0,1,.41.41V20.2A3,3,0,0,1,41.54,23.25Z"/><path class="cls-1" d="M54.12,23.06H48.74a.37.37,0,0,1-.41-.41v-.42a.37.37,0,0,1,.41-.41H50.3a.38.38,0,0,0,.42-.41V16a.38.38,0,0,0-.42-.41h-.94A.38.38,0,0,1,49,15.2v-.41a.37.37,0,0,1,.41-.41H53.5a.37.37,0,0,1,.41.41v.41a.38.38,0,0,1-.41.42h-.94a.37.37,0,0,0-.41.41v5.38a.37.37,0,0,0,.41.41h1.56a.37.37,0,0,1,.41.41v.42A.37.37,0,0,1,54.12,23.06Z"/><path class="cls-1" d="M63.75,23.06H63c-.26,0-.41-.19-.54-.41l-2.92-5.19c-.09-.19-.26-.15-.26,0v5.19a.37.37,0,0,1-.41.41h-.53a.37.37,0,0,1-.41-.41V14.79a.37.37,0,0,1,.41-.41h.71c.27,0,.42.18.55.41l2.91,5.13c.12.19.27.15.27,0V14.79a.37.37,0,0,1,.41-.41h.53a.37.37,0,0,1,.41.41v7.86A.37.37,0,0,1,63.75,23.06Z"/><path class="cls-1" d="M70.83,23.25a3,3,0,0,1-3.1-3.05v-3a3,3,0,0,1,3.1-3,2.93,2.93,0,0,1,2.75,1.63.44.44,0,0,1-.11.57l-.46.32a.35.35,0,0,1-.56-.1,1.84,1.84,0,0,0-1.62-1.09,1.66,1.66,0,0,0-1.65,1.71v.45a.38.38,0,0,0,.41.42h1.92a.37.37,0,0,1,.41.41v.42a.37.37,0,0,1-.41.41H69.59a.37.37,0,0,0-.41.41v.45a1.65,1.65,0,0,0,1.65,1.71,1.84,1.84,0,0,0,1.62-1.05c.17-.24.36-.28.56-.15l.44.3a.4.4,0,0,1,.17.57A3,3,0,0,1,70.83,23.25Z"/><path class="cls-1" d="M21.15,106.48l-.26-1.56,0,0c-.19-.08-.26.06-.3.13l-.74,1.43.16-2.39-.66.07-.16,4h.3L20.57,106l.35,2.16h.3l0-.08s0,0,0,0l1.13-3.58s0-.1,0-.15l.06-.19-.64-.08Z"/><path class="cls-1" d="M29.88,106.36l.05,0a1.44,1.44,0,0,0,.85-1.24.74.74,0,0,0-.38-.77,1.09,1.09,0,0,0-.44-.14H28.52l-.08,0-.05,0-.68,3.87h.64l.28-1.6h.58a1.22,1.22,0,0,1,.07.17l.6,1.53H30l.49-.31-.64-1.5h0Zm-.72-1.59h.61a.34.34,0,0,1,.34.39.71.71,0,0,1-.59.7,5.47,5.47,0,0,1-.59,0h-.2l.2-1.13Z"/><path class="cls-1" d="M69.73,104.17c-.12,0-.23,0-.34,0a.28.28,0,0,0-.28.16l-.63,1.07-.13.23,0,.05-.36-1.5h-.77l-.84,3.9H67l.58-2.8c.14.56.28,1.12.43,1.7l0,.17,1.11-1.84-.4,2.77h.67l.53-3.91h-.25Z"/><path class="cls-1" d="M48.08,105a.74.74,0,0,0-.41-.69,1.64,1.64,0,0,0-.56-.11l-1,0h-.56l-.1.58h.39l-.48,2.73H45l-.11.61h.67c.45,0,.87,0,1.3,0a1.22,1.22,0,0,0,1.13-1,.88.88,0,0,0-.23-1,.6.6,0,0,0-.13-.09A1.19,1.19,0,0,0,48.08,105Zm-1.56,2.51H46l.2-1.13h.73a.42.42,0,0,1,.4.36.64.64,0,0,1-.31.66,1.11,1.11,0,0,1-.26.09Zm.27-1.72h-.5s0,0,0,0c.05-.31.11-.62.16-.94v0h.16a3.65,3.65,0,0,1,.47,0,.35.35,0,0,1,.25.12.43.43,0,0,1,0,.31A.63.63,0,0,1,46.79,105.78Z"/><path class="cls-1" d="M38.75,104.23a1.55,1.55,0,0,0-.31,0H37l-.06,0-.07,0-.09.56h.39l-.49,2.74h-.39l-.09.53.07,0a.11.11,0,0,0,.06,0H37c.29,0,.59,0,.88,0a1.46,1.46,0,0,0,1.3-1,8.2,8.2,0,0,0,.23-.81,3.43,3.43,0,0,0,.09-1.16A.94.94,0,0,0,38.75,104.23Zm-1,.54h.16a3.61,3.61,0,0,1,.47,0,.48.48,0,0,1,.44.42,2.28,2.28,0,0,1-.05,1,4.23,4.23,0,0,1-.21.74.87.87,0,0,1-.9.6h-.4Z"/><path class="cls-1" d="M17.12,104.25a1.22,1.22,0,0,0-1.12,0,1.61,1.61,0,0,0-.81.76,3.55,3.55,0,0,0-.42,2.17,1.15,1.15,0,0,0,.45.82,1.11,1.11,0,0,0,.65.19l.29,0a1.61,1.61,0,0,0,1.07-.84,3.62,3.62,0,0,0,.44-1.76h0v-.1a.74.74,0,0,0,0-.21A1.19,1.19,0,0,0,17.12,104.25Zm-.1,1.43a3.15,3.15,0,0,1-.3,1.25,2.14,2.14,0,0,1-.31.44.58.58,0,0,1-.47.18h0a.47.47,0,0,1-.48-.38,2.46,2.46,0,0,1-.06-.36.34.34,0,0,0,0-.1,3.69,3.69,0,0,1,.35-1.46,1.81,1.81,0,0,1,.26-.34.63.63,0,0,1,.41-.19.45.45,0,0,1,.54.34A2.4,2.4,0,0,1,17,105.68Z"/><path class="cls-1" d="M64.88,104.29a1.15,1.15,0,0,0-.95-.14,1.58,1.58,0,0,0-1,.82,3.87,3.87,0,0,0-.46,1.8h0v.09c0,.08,0,.17,0,.25a1.21,1.21,0,0,0,.49.86,1.05,1.05,0,0,0,.62.18,1.53,1.53,0,0,0,.36,0,1.5,1.5,0,0,0,1-.79,3.48,3.48,0,0,0,.45-2.21A1.13,1.13,0,0,0,64.88,104.29Zm-.13,1.34a4.78,4.78,0,0,1-.33,1.3,1,1,0,0,1-.35.47,1.17,1.17,0,0,1-.38.14.44.44,0,0,1-.52-.33,1.41,1.41,0,0,1-.07-.63,3.28,3.28,0,0,1,.34-1.33,1.68,1.68,0,0,1,.3-.38.54.54,0,0,1,.41-.15h0a.42.42,0,0,1,.45.31,2.71,2.71,0,0,1,.09.41Z"/><path class="cls-1" d="M32.1,108.09h2.5l.11-.58H32.84l.21-1.19H34.6l.08-.59H33.16l.17-1h1.86v-.06c0-.15,0-.29.08-.44v-.08h-2.5Z"/><path class="cls-1" d="M23.43,108.1h2.39A.19.19,0,0,0,26,108c0-.08,0-.17.05-.26l0-.2H24.17l.21-1.17h1.53l.11-.6H24.48l.18-1h1.86l.09-.58H24.12Z"/><path class="cls-1" d="M81.55,104.72a.43.43,0,0,1,.46.39l.06.25.59-.17v0a.93.93,0,0,0-.9-1,1.71,1.71,0,0,0-.32,0,1.28,1.28,0,0,0-1.15.91.85.85,0,0,0,.47,1.11l.34.15.24.11a1.63,1.63,0,0,1,.27.15.35.35,0,0,1,.16.36.67.67,0,0,1-.58.63.58.58,0,0,1-.76-.55.43.43,0,0,0,0-.11l0-.15-.59.18V107s0,.08,0,.12l0,.22a1,1,0,0,0,.86.83l.24,0h.18A1.39,1.39,0,0,0,82.4,107a.89.89,0,0,0-.54-1.09c-.24-.1-.48-.22-.73-.35a.41.41,0,0,1-.06-.72A.71.71,0,0,1,81.55,104.72Z"/><path class="cls-1" d="M12.73,104.2H11.24a.09.09,0,0,0-.07,0l0,0-.68,3.86h.63l.29-1.62h.73a1.37,1.37,0,0,0,1.38-1.15A.88.88,0,0,0,12.73,104.2Zm-1.05.58h.23a4.28,4.28,0,0,1,.62,0c.21,0,.31.14.31.39a.66.66,0,0,1-.62.69,4.77,4.77,0,0,1-.54,0h-.19Z"/><path class="cls-1" d="M77.32,104.11h0a1.44,1.44,0,0,0-1.12.55,3,3,0,0,0-.64,2.61,1,1,0,0,0,.88.86,1.23,1.23,0,0,0,.27,0l.31,0a1.93,1.93,0,0,0,1.15-.79l0,0-.46-.37-.11.12a1.59,1.59,0,0,0-.13.13,1.19,1.19,0,0,1-.52.35.59.59,0,0,1-.81-.47v0s0-.06,0-.08,0-.16,0-.24a4,4,0,0,1,0-.6,2.12,2.12,0,0,1,.38-1,.91.91,0,0,1,.44-.35.55.55,0,0,1,.74.28l.06.13.07.14.11-.06.19-.08.24-.11,0,0,0-.06A1.07,1.07,0,0,0,77.32,104.11Z"/><path class="cls-1" d="M59.13,105.23a.94.94,0,0,1,.52-.47.54.54,0,0,1,.74.3l.06.11.07.14.59-.28,0-.06a1.1,1.1,0,0,0-1.22-.86,1.56,1.56,0,0,0-1.16.66,3.15,3.15,0,0,0-.58,2.37,1.06,1.06,0,0,0,.91,1,1.27,1.27,0,0,0,.28,0h.18a1.88,1.88,0,0,0,1.28-.82l0,0-.46-.36-.1.11-.09.1a1.22,1.22,0,0,1-.56.39.69.69,0,0,1-.56,0,.64.64,0,0,1-.25-.42,2.81,2.81,0,0,1,0-.59A2.69,2.69,0,0,1,59.13,105.23Z"/><path class="cls-1" d="M50.93,105.92l-.64-1.87-.64.3.05.13s0,.08,0,.12.11.29.17.44c.15.4.31.81.47,1.22a.93.93,0,0,1,.06.65c0,.08,0,.16,0,.25v0c0,.21-.07.42-.1.64l0,.25h.62l0-.1a.24.24,0,0,0,0-.08c.07-.37.13-.75.2-1.12a.65.65,0,0,1,.11-.31c.34-.45.68-.9,1-1.36l.26-.34.19-.26.11-.15-.55-.32Z"/><polygon class="cls-1" points="71.97 104.77 72.5 104.77 72.01 107.51 71.48 107.51 71.39 108.08 73.08 108.08 73.19 107.5 72.66 107.5 73.14 104.76 73.67 104.76 73.77 104.18 72.07 104.18 71.97 104.77"/><path class="cls-1" d="M91.05,112.44h-89A1.87,1.87,0,0,1,.2,110.57v-8.88a1.87,1.87,0,0,1,1.87-1.87h42.3L46.56,96l2.2,3.8H91.05a1.88,1.88,0,0,1,1.88,1.87v8.88A1.88,1.88,0,0,1,91.05,112.44Zm-89-11.9a1.16,1.16,0,0,0-1.16,1.15v8.88a1.16,1.16,0,0,0,1.16,1.16h89a1.16,1.16,0,0,0,1.16-1.16v-8.88a1.16,1.16,0,0,0-1.16-1.15H48.34l-1.78-3.08-1.77,3.08Z"/></g></g></svg>