<svg id="Layer_1" data-name="Layer 1" xmlns="http://www.w3.org/2000/svg" viewBox="0 0 341 105.23"><defs><style>.cls-1{fill:#fff;}</style></defs><title>DE_sticky_logo</title><path class="cls-1" d="M192.54,421A39.42,39.42,0,0,0,184.46,397l-12.24,11.43a23.09,23.09,0,0,1-3.37,29.67,22.75,22.75,0,0,1-15.59,6.13l-1,0a23.46,23.46,0,0,1-12.1-4l-9.28,13.62A39.63,39.63,0,0,0,192.54,421Z" transform="translate(-127.14 -368.33)"/><path class="cls-1" d="M205.39,417l-.29-2.76a1.45,1.45,0,0,0-1.6-1.3l-5,.53-.05-.29a45.53,45.53,0,0,0-4-12.42l-.13-.26,4.36-2.51a1.46,1.46,0,0,0,.53-2l-1.39-2.41a1.46,1.46,0,0,0-2-.53l-4.35,2.51-.16-.25c-.59-.88-1.24-1.78-2-2.74l-.18-.23,3.75-3.38a1.45,1.45,0,0,0,.11-2.05l-1.86-2.07a1.45,1.45,0,0,0-1-.48,1.41,1.41,0,0,0-1,.37l-3.74,3.37-.21-.21c-.83-.8-1.67-1.57-2.52-2.28l-.22-.19,3-4.08a1.45,1.45,0,0,0-.32-2l-2.25-1.63a1.44,1.44,0,0,0-2,.32l-3,4.06-.25-.15c-.93-.59-1.92-1.17-2.94-1.71l-.25-.14,2.05-4.6a1.47,1.47,0,0,0,0-1.11,1.38,1.38,0,0,0-.76-.81l-2.54-1.13a1.43,1.43,0,0,0-1.11,0,1.44,1.44,0,0,0-.81.76l-2,4.59-.27-.1c-1.07-.4-2.15-.75-3.23-1.06l-.28-.08,1-4.93a1.47,1.47,0,0,0-1.12-1.72l-2.72-.58a1.46,1.46,0,0,0-1.73,1.12l-1,4.91-.28,0c-1.07-.16-2.21-.27-3.38-.36l-.3,0v-5a1.47,1.47,0,0,0-1.46-1.46h-2.78a1.46,1.46,0,0,0-1.46,1.46v5l-.29,0c-1.13.07-2.26.19-3.38.34l-.29,0-1.05-4.92a1.45,1.45,0,0,0-1.72-1.12l-2.72.58a1.45,1.45,0,0,0-1.12,1.72l1,4.91-.28.08c-1.09.3-2.18.65-3.24,1l-.28.1-2-4.6a1.44,1.44,0,0,0-.81-.76,1.43,1.43,0,0,0-1.11,0l-2.54,1.13a1.44,1.44,0,0,0-.74,1.92l2,4.58-.26.14a48.14,48.14,0,0,0-4.23,2.52l2.32,3.42a42,42,0,0,1,51.2,3.36l2.36-2.21,5.58,6-2.35,2.19a42.08,42.08,0,0,1-56.81,60.59l-2.32,3.42a44.47,44.47,0,0,0,4,2.42l.25.14-2,4.6a1.42,1.42,0,0,0,0,1.11,1.47,1.47,0,0,0,.76.81l2.54,1.13a1.45,1.45,0,0,0,1.12,0,1.41,1.41,0,0,0,.8-.77l2-4.58.27.1c1.07.39,2.15.75,3.23,1.06l.28.08-1,4.92a1.46,1.46,0,0,0,1.12,1.73l2.72.58a1.46,1.46,0,0,0,1.72-1.12l1-4.92.29.05c1.13.16,2.27.28,3.38.36l.29,0v5a1.45,1.45,0,0,0,1.45,1.45h2.78a1.45,1.45,0,0,0,1.46-1.45v-5l.29,0c1.14-.08,2.28-.19,3.38-.34l.29,0,1,4.93a1.43,1.43,0,0,0,.63.91,1.45,1.45,0,0,0,1.09.21l2.73-.58a1.47,1.47,0,0,0,1.12-1.73l-1.05-4.91.29-.08c1.19-.33,2.25-.67,3.24-1l.27-.1,2,4.59a1.47,1.47,0,0,0,.81.76,1.42,1.42,0,0,0,1.11,0l2.55-1.13a1.45,1.45,0,0,0,.73-1.92l-2-4.59.26-.14c1-.52,2-1.09,3-1.69l.25-.16,3,4.08a1.43,1.43,0,0,0,.94.58,1.46,1.46,0,0,0,1.09-.26l2.25-1.63a1.47,1.47,0,0,0,.58-.95,1.42,1.42,0,0,0-.26-1.08l-3-4.07.22-.19c.83-.69,1.66-1.43,2.53-2.27l.21-.2,3.75,3.37a1.45,1.45,0,0,0,2.05-.1l1.87-2.07a1.49,1.49,0,0,0,.37-1,1.47,1.47,0,0,0-.48-1L189,449.79l.18-.23c.79-1,1.45-1.89,2-2.74l.16-.24,4.36,2.52a1.45,1.45,0,0,0,2-.53l1.4-2.41a1.46,1.46,0,0,0-.54-2l-4.34-2.51.13-.26c.49-1,1-2,1.39-3.11l.11-.27,4.79,1.56a1.41,1.41,0,0,0,1.1-.09,1.47,1.47,0,0,0,.73-.84l.86-2.65a1.45,1.45,0,0,0-.93-1.83l-4.77-1.55.07-.29A46.3,46.3,0,0,0,199.13,421c0-.46,0-.91,0-1.37v-.51l5-.53a1.46,1.46,0,0,0,1.29-1.6Z" transform="translate(-127.14 -368.33)"/><path class="cls-1" d="M130.88,388l9.06,13.32a23.15,23.15,0,0,1,26.69,1.12L178.86,391a39.57,39.57,0,0,0-48-3Z" transform="translate(-127.14 -368.33)"/><path class="cls-1" d="M169,408.1l.19-.18,16-14.92-2.2-2.37-.42.39-15.76,14.72-.83-.7a21.16,21.16,0,0,0-13.49-4.89,20.29,20.29,0,0,0-13.93,5.45,20.82,20.82,0,0,0-.71,29.41,21.08,21.08,0,0,0,14.56,6.74,20.35,20.35,0,0,0,14.82-5.45A20.75,20.75,0,0,0,169.59,409Zm-16,30.37h0a16.92,16.92,0,0,1-12.17-5.14,17.72,17.72,0,0,1,0-24.77,17,17,0,0,1,12.19-5.14,17.53,17.53,0,0,1,0,35.05Z" transform="translate(-127.14 -368.33)"/><path class="cls-1" d="M152.91,410.76h0a9.82,9.82,0,0,0-7,3,10.32,10.32,0,0,0,0,14.42,9.79,9.79,0,0,0,7,3,10.19,10.19,0,0,0,0-20.37Z" transform="translate(-127.14 -368.33)"/><path class="cls-1" d="M152.91,405.89h0a14.52,14.52,0,0,0-10.42,4.4,15.17,15.17,0,0,0-4.34,10.65,14.76,14.76,0,1,0,14.76-15.05Zm0,27.72h0a12.25,12.25,0,0,1-8.81-3.72,12.82,12.82,0,0,1,0-17.89,12.24,12.24,0,0,1,8.81-3.71,12.66,12.66,0,0,1,0,25.32Z" transform="translate(-127.14 -368.33)"/><path class="cls-1" d="M291,459.33l-2.35-3.46a42.09,42.09,0,1,1,0-69.83l2.37-3.47a44.64,44.64,0,0,0-4-2.42l-.25-.14,2-4.6a1.45,1.45,0,0,0-.73-1.92l-2.54-1.13a1.46,1.46,0,0,0-1.92.74l-2.05,4.58-.27-.1c-1.06-.39-2.15-.75-3.23-1.06l-.28-.08,1-4.92a1.4,1.4,0,0,0-.2-1.09,1.45,1.45,0,0,0-.91-.64l-2.73-.58a1.46,1.46,0,0,0-1.09.21,1.43,1.43,0,0,0-.63.91l-1.05,4.92-.29-.05c-1.12-.16-2.26-.28-3.38-.36l-.29,0v-5a1.45,1.45,0,0,0-1.45-1.45H264a1.45,1.45,0,0,0-1.46,1.45v5l-.29,0c-1.14.08-2.27.19-3.38.34l-.29,0-1.05-4.93a1.46,1.46,0,0,0-1.72-1.12l-2.73.58a1.47,1.47,0,0,0-1.12,1.73l1.05,4.91-.28.08c-1.21.34-2.27.68-3.25,1l-.27.1-2-4.59a1.47,1.47,0,0,0-1.92-.74l-2.54,1.13a1.46,1.46,0,0,0-.77.81,1.43,1.43,0,0,0,0,1.11l2,4.59-.26.14c-1,.52-2,1.09-3,1.69l-.24.16-3-4.08a1.46,1.46,0,0,0-2-.32l-2.25,1.63a1.45,1.45,0,0,0-.32,2l3,4.07-.22.19c-.83.68-1.65,1.42-2.53,2.27l-.21.2-3.75-3.37a1.45,1.45,0,0,0-2.05.1l-1.86,2.07a1.45,1.45,0,0,0,.1,2.05l3.74,3.37-.18.23c-.78,1-1.44,1.89-2,2.74l-.16.24-4.36-2.52a1.45,1.45,0,0,0-1.1-.14,1.42,1.42,0,0,0-.88.67l-1.4,2.41a1.46,1.46,0,0,0,.54,2l4.34,2.51-.13.26a46,46,0,0,0-4.05,12.39l-.05.29-5-.53a1.46,1.46,0,0,0-1.6,1.3l-.29,2.76a1.44,1.44,0,0,0,1.29,1.6l5,.53v.29c0,.6-.05,1.2-.05,1.81a46.21,46.21,0,0,0,1.37,11.16l.07.29-4.79,1.55a1.46,1.46,0,0,0-.93,1.83l.86,2.65a1.45,1.45,0,0,0,1.83.93l4.77-1.55.11.27c.45,1.14.9,2.15,1.37,3.12l.13.26L219.46,444a1.44,1.44,0,0,0-.67.89,1.46,1.46,0,0,0,.14,1.1l1.39,2.41a1.47,1.47,0,0,0,.89.67,1.42,1.42,0,0,0,1.1-.14l4.35-2.51.16.25c.59.88,1.24,1.78,2,2.75l.18.22L225.25,453a1.45,1.45,0,0,0-.11,2l1.86,2.07a1.45,1.45,0,0,0,1,.48,1.42,1.42,0,0,0,1.05-.37l3.74-3.37.21.21c.81.8,1.66,1.56,2.51,2.28l.23.19-3,4.08a1.45,1.45,0,0,0,.32,2l2.25,1.63a1.46,1.46,0,0,0,1.09.26,1.43,1.43,0,0,0,.95-.58l3-4.06.25.15c1,.64,2,1.2,2.93,1.72l.26.14-2.05,4.59a1.47,1.47,0,0,0,0,1.11,1.44,1.44,0,0,0,.76.81l2.54,1.14a1.47,1.47,0,0,0,1.11,0,1.44,1.44,0,0,0,.81-.76l2-4.58.28.1c1,.36,2,.71,3.23,1.05l.28.08-1,4.93a1.45,1.45,0,0,0,.21,1.09,1.43,1.43,0,0,0,.91.63l2.73.58a1.45,1.45,0,0,0,1.72-1.12l1.05-4.91.29,0c1.07.16,2.21.27,3.38.36l.29,0v5a1.46,1.46,0,0,0,1.45,1.46h2.78A1.46,1.46,0,0,0,268,472.1v-5l.29,0c1.13-.07,2.27-.19,3.38-.34l.29,0L273,471.6a1.43,1.43,0,0,0,.63.92,1.45,1.45,0,0,0,1.09.2l2.72-.58a1.45,1.45,0,0,0,1.12-1.72l-1-4.91.28-.08c1.09-.3,2.18-.65,3.24-1l.28-.1,2,4.6a1.44,1.44,0,0,0,.81.76,1.47,1.47,0,0,0,1.11,0l2.54-1.14a1.41,1.41,0,0,0,.77-.8,1.45,1.45,0,0,0,0-1.12l-2-4.58.26-.14A48.14,48.14,0,0,0,291,459.33Z" transform="translate(-127.14 -368.33)"/><path class="cls-1" d="M265.3,450.17h0a29.26,29.26,0,0,1-28.76-24.11l-8-.93.09-8.73.26,0,7.7-.89a29.27,29.27,0,0,1,28.71-23.78h0a29.1,29.1,0,0,1,16.16,4.89l5.8-8.51a39.62,39.62,0,1,0,0,65.74l-5.81-8.53A29,29,0,0,1,265.3,450.17Z" transform="translate(-127.14 -368.33)"/><path class="cls-1" d="M281.11,416.71l-.24-.77a16.44,16.44,0,0,0-15.51-11.45h-.11a16.46,16.46,0,0,0-15.69,11.28l-.25.75-.19,0-18,2.08-.05,4.31,18.18,2.1.23.77A16.41,16.41,0,0,0,265,437.41h.18A16.4,16.4,0,0,0,280.86,426l.24-.75.19,0,18-2.26v-4.31ZM276,430.81a14.94,14.94,0,0,1-10.26,4.9c-.28,0-.56,0-.84,0a14.47,14.47,0,0,1-14.49-14,15,15,0,0,1,3.93-10.67,14.79,14.79,0,0,1,20.86-1.15,14.4,14.4,0,0,1,4.72,10.21A14.91,14.91,0,0,1,276,430.81Z" transform="translate(-127.14 -368.33)"/><path class="cls-1" d="M270.79,414.78a8.09,8.09,0,0,0-5.44-2.1h-.47a8.48,8.48,0,0,0-7.95,8.74,8,8,0,0,0,2.62,5.69,8.27,8.27,0,0,0,11.66-.67,8.41,8.41,0,0,0,2.2-6A8,8,0,0,0,270.79,414.78Z" transform="translate(-127.14 -368.33)"/><path class="cls-1" d="M273.53,411.76a12,12,0,0,0-8.1-3.12,12.6,12.6,0,0,0-12.54,13,12,12,0,0,0,12.72,11.58,12.62,12.62,0,0,0,11.84-13A12,12,0,0,0,273.53,411.76ZM273,428.11l-.09.1a10.92,10.92,0,0,1-8,3.47,10.5,10.5,0,0,1-10.54-10.16,11,11,0,0,1,10.29-11.3,10.53,10.53,0,0,1,11.14,10.15A10.82,10.82,0,0,1,273,428.11Z" transform="translate(-127.14 -368.33)"/><path class="cls-1" d="M389.41,414.92c-.38,0-.74,0-1.09,0a.9.9,0,0,0-.9.52c-.66,1.15-1.34,2.29-2,3.43l-.44.73-.09.16L383.72,415h-2.45l-2.7,12.51h2.15l1.86-9c.45,1.78.9,3.57,1.37,5.45l.13.53,3.56-5.91-1.28,8.91h2.14l1.7-12.55h-.79Z" transform="translate(-127.14 -368.33)"/><path class="cls-1" d="M373.87,415.31a3.77,3.77,0,0,0-3.08-.47,5.19,5.19,0,0,0-3.32,2.65,12.17,12.17,0,0,0-1.48,5.76v0c0,.1,0,.2,0,.31a7.39,7.39,0,0,0,.06.78,3.84,3.84,0,0,0,1.56,2.77,3.47,3.47,0,0,0,2,.58,5,5,0,0,0,1.18-.15,4.88,4.88,0,0,0,3.14-2.53,11.34,11.34,0,0,0,1.43-7.09A3.69,3.69,0,0,0,373.87,415.31Zm-.44,4.27a14.26,14.26,0,0,1-1.06,4.2,2.88,2.88,0,0,1-2.32,2,1.47,1.47,0,0,1-1.7-1.06,4.8,4.8,0,0,1-.21-2,10.22,10.22,0,0,1,1.1-4.26,5.87,5.87,0,0,1,.95-1.22,1.86,1.86,0,0,1,1.34-.5h.08a1.38,1.38,0,0,1,1.44,1,8.26,8.26,0,0,1,.28,1.33C373.36,419.19,373.39,419.39,373.43,419.58Z" transform="translate(-127.14 -368.33)"/><path class="cls-1" d="M427.31,416.67a1.4,1.4,0,0,1,1.49,1.25l.17.81,1.89-.54V418a3,3,0,0,0-2.88-3.29,7,7,0,0,0-1,0,4.13,4.13,0,0,0-3.68,2.91,2.69,2.69,0,0,0,1.5,3.56c.36.18.73.35,1.1.5l.76.35a5.88,5.88,0,0,1,.88.49,1.15,1.15,0,0,1,.52,1.15,2.15,2.15,0,0,1-1.86,2,1.86,1.86,0,0,1-2.45-1.76l-.06-.34-.09-.48-1.91.58,0,.19c0,.14,0,.26,0,.38s.06.48.1.7a3.19,3.19,0,0,0,2.77,2.67,5.66,5.66,0,0,0,.75.05l.58,0a4.45,4.45,0,0,0,4.11-3.61,2.84,2.84,0,0,0-1.73-3.48c-.76-.33-1.55-.71-2.34-1.14a1.4,1.4,0,0,1-.77-1.06,1.46,1.46,0,0,1,.58-1.24A2.33,2.33,0,0,1,427.31,416.67Z" transform="translate(-127.14 -368.33)"/><path class="cls-1" d="M413.75,414.72h-.18a4.67,4.67,0,0,0-3.57,1.74,9.76,9.76,0,0,0-2.06,8.38,3.24,3.24,0,0,0,2.83,2.77,4.8,4.8,0,0,0,.85.07,5.86,5.86,0,0,0,1-.09,6.2,6.2,0,0,0,3.69-2.51l.15-.18L415,423.73l-.35.38-.4.43a3.69,3.69,0,0,1-1.67,1.11,1.88,1.88,0,0,1-2.61-1.51v-.07a1,1,0,0,1-.05-.27c0-.26,0-.51,0-.76a15.67,15.67,0,0,1,.13-1.94,7.17,7.17,0,0,1,1.23-3.18,3,3,0,0,1,1.42-1.12,1.77,1.77,0,0,1,2.37.92l.2.4.2.44.37-.17.6-.27.76-.37.18-.08-.06-.19A3.43,3.43,0,0,0,413.75,414.72Z" transform="translate(-127.14 -368.33)"/><path class="cls-1" d="M355.41,418.3a3.07,3.07,0,0,1,1.66-1.49,1.75,1.75,0,0,1,2.39.95l.18.36.21.44,1.91-.89-.06-.19a3.49,3.49,0,0,0-3.93-2.74,4.87,4.87,0,0,0-3.7,2.09,10,10,0,0,0-1.85,7.6,3.37,3.37,0,0,0,2.91,3.19,4.27,4.27,0,0,0,.89.08l.57,0a5.94,5.94,0,0,0,4.11-2.61l.14-.18-1.5-1.15-.31.36-.29.33a3.77,3.77,0,0,1-1.78,1.23,2.26,2.26,0,0,1-1.81-.16,1.92,1.92,0,0,1-.79-1.34,7.8,7.8,0,0,1-.1-1.91A8.82,8.82,0,0,1,355.41,418.3Z" transform="translate(-127.14 -368.33)"/><polygon class="cls-1" points="269.47 48.5 271.14 48.5 269.59 57.3 267.9 57.3 267.59 59.14 273.03 59.14 273.36 57.27 271.65 57.27 273.2 48.47 274.91 48.47 275.24 46.63 269.78 46.63 269.47 48.5"/><path class="cls-1" d="M468.14,406.91V435.4a6,6,0,0,1-6,6H333.22l-14.35,14.36V406.91a6,6,0,0,1,6-6H462.13A6,6,0,0,1,468.14,406.91ZM332.27,439.12H462.13a3.72,3.72,0,0,0,3.71-3.72V406.91a3.72,3.72,0,0,0-3.71-3.72H324.88a3.73,3.73,0,0,0-3.72,3.72v43.32Z" transform="translate(-127.14 -368.33)"/></svg>