<?xml version="1.0" encoding="UTF-8" standalone="no"?>
<svg
   xmlns:dc="http://purl.org/dc/elements/1.1/"
   xmlns:cc="http://creativecommons.org/ns#"
   xmlns:rdf="http://www.w3.org/1999/02/22-rdf-syntax-ns#"
   xmlns:svg="http://www.w3.org/2000/svg"
   xmlns="http://www.w3.org/2000/svg"
   xmlns:sodipodi="http://sodipodi.sourceforge.net/DTD/sodipodi-0.dtd"
   xmlns:inkscape="http://www.inkscape.org/namespaces/inkscape"
   width="110.119"
   height="80.005707"
   viewBox="0 0 110.119 80.005707"
   id="svg2"
   version="1.1"
   inkscape:version="0.91 r13725"
   sodipodi:docname="DifferenceEngine-StickyLogo.svg"
   style="fill:none">
  <metadata
     id="metadata60">
    <rdf:RDF>
      <cc:Work
         rdf:about="">
        <dc:format>image/svg+xml</dc:format>
        <dc:type
           rdf:resource="http://purl.org/dc/dcmitype/StillImage" />
        <dc:title></dc:title>
      </cc:Work>
    </rdf:RDF>
  </metadata>
  <defs
     id="defs58" />
  <sodipodi:namedview
     pagecolor="#ffffff"
     bordercolor="#666666"
     borderopacity="1"
     objecttolerance="10"
     gridtolerance="10"
     guidetolerance="10"
     inkscape:pageopacity="0"
     inkscape:pageshadow="2"
     inkscape:window-width="1366"
     inkscape:window-height="744"
     id="namedview56"
     showgrid="false"
     inkscape:zoom="1.195122"
     inkscape:cx="63.173469"
     inkscape:cy="-60.403431"
     inkscape:window-x="0"
     inkscape:window-y="24"
     inkscape:window-maximized="1"
     inkscape:current-layer="svg2"
     fit-margin-top="0"
     fit-margin-left="0"
     fit-margin-right="0"
     fit-margin-bottom="0" />
  <path
     d="m 82.7008,33.832577 c 3.4605,0.0116 6.2627,2.8164 6.2511,6.2633 -0.0115,3.447 -2.8253,6.2363 -6.2896,6.2247 -3.4604,-0.0116 -6.2627,-2.8164 -6.2511,-6.2633 0.0115,-3.447 2.8253,-6.2363 6.2896,-6.2247 z"
     id="path36"
     inkscape:export-xdpi="600"
     inkscape:export-ydpi="600"
     inkscape:connector-curvature="0"
     style="fill:#e10098" />
  <path
     d="m 82.5081,48.939777 c -4.9077,-0.0155 -8.8878,-4.004 -8.8724,-8.8902 0.0154,-4.8861 4.0186,-8.8515 8.9263,-8.836 4.9078,0.0155 8.8879,4.0041 8.8725,8.8902 -0.0154,4.8861 -4.0186,8.8515 -8.9264,8.836 z m 0.0655,-22.7361 c -6.0087,-0.0193 -11.1397,3.7836 -13.1028,9.0991 l -14.2152,2.3676 -0.0154,5.0796 14.2152,2.0581 c 1.9439,5.3078 7.0403,9.1223 13.0335,9.1416 6.0086,0.0194 11.1358,-3.7835 13.1027,-9.0952 l 14.5114,-2.3676 0.016,-5.0796 -14.512,-2.0619 c -1.94,-5.3078 -7.0363,-9.1223 -13.0334,-9.1417 z"
     id="path38"
     inkscape:export-xdpi="600"
     inkscape:export-ydpi="600"
     inkscape:connector-curvature="0"
     style="fill:#e10098" />
  <path
     d="m 19.9426,39.883177 c -0.0115,3.4934 -2.7907,6.3137 -6.2088,6.3059 -3.4181,-0.0116 -6.18184,-2.8512 -6.17029,-6.3446 0.01155,-3.4934 2.79069,-6.3175 6.20879,-6.3059 3.4181,0.0155 6.1819,2.8551 6.1703,6.3446 z"
     id="path40"
     inkscape:export-xdpi="600"
     inkscape:export-ydpi="600"
     inkscape:connector-curvature="0"
     style="fill:#e10098" />
  <path
     d="m 22.5411,39.894877 c -0.0154,4.948 -3.9685,8.9636 -8.8147,8.952 -4.84617,-0.0154 -8.77623,-4.0543 -8.76083,-9.0023 0.0154,-4.9519 3.96855,-8.9676 8.81473,-8.9521 4.8462,0.0116 8.7762,4.0505 8.7608,9.0024 z m -6.4012,-27.541 -5.0348,-0.0155 -2.04011,14.3411 c -5.26573,1.9576 -9.0456705,7.099 -9.064916616286,13.1457 C -0.0191727,45.887377 3.74922,51.059777 9.0188,53.040577 l 2.348,14.3372 5.0348,0.0155 2.0401,-14.3411 c 5.2619,-1.9576 9.0457,-7.099 9.0649,-13.1496 0.0193,-6.0622 -3.7491,-11.2346 -9.0187,-13.2192 l -2.348,-14.3295 z"
     id="path42"
     inkscape:export-xdpi="600"
     inkscape:export-ydpi="600"
     inkscape:connector-curvature="0"
     style="fill:#e10098" />
  <path
     d="m 96.4268,71.547977 0.0038,-12.3449 c -4.4843,-0.0116 -8.7262,-1.5977 -11.9672,-4.2246 -0.6505,0.0851 -1.3088,0.1354 -1.9747,0.1316 -6.0625,-0.0194 -11.5592,-3.7062 -13.9111,-9.2539 l -2.9331,-0.4255 c 2.5559,14.8092 15.3815,26.1096 30.7823,26.1173 z"
     id="path44"
     inkscape:export-xdpi="600"
     inkscape:export-ydpi="600"
     inkscape:connector-curvature="0"
     style="fill:#002677" />
  <path
     d="m 64.3631,45.244777 -3.345,-0.4835 c 0.4503,3.4547 1.3972,6.7546 2.7599,9.8302 l -3.8647,2.7777 c -0.5504,0.3985 -0.7775,1.0252 -0.5235,1.4701 l 2.2057,3.8841 c 0.254,0.4488 0.9122,0.5649 1.5358,0.2786 l 4.3342,-1.9653 c 0.9854,1.3695 2.0671,2.6655 3.2334,3.8841 l -2.7137,3.977 c -0.385,0.5648 -0.3811,1.2341 0.0038,1.5629 l 3.3912,2.8899 c 0.3888,0.3327 1.047,0.2167 1.5397,-0.2669 l 3.4219,-3.358 c 1.3819,0.9478 2.8292,1.8067 4.3381,2.5572 l -1.2009,4.6656 c -0.1694,0.6654 0.0615,1.2883 0.535,1.4662 l 4.1649,1.5436 c 0.4811,0.178 1.0585,-0.1586 1.3549,-0.7815 l 2.067,-4.3097 c 2.8254,0.7312 5.7777,1.1336 8.8186,1.1413 l 0,-3.2187 c -16.136,-0.0155 -29.5582,-11.958 -32.0563,-27.5449 z"
     id="path46"
     inkscape:export-xdpi="600"
     inkscape:export-ydpi="600"
     inkscape:connector-curvature="0"
     style="fill:#002677" />
  <path
     d="m 19.0264,58.402277 -1.3203,9.2693 -0.154,1.0717 -1.0701,-0.0039 -2.7291,-0.0116 0,2.8202 c 17.2445,0 31.275,-14.1515 31.275,-31.5489 0,-17.3935 -14.0305,-31.5488803 -31.275,-31.5488803 l 0,2.7467803 2.4751,0.0077 1.0431,0.0039 0.1694,1.0368 1.5166,9.2577 c 8.0295,2.2593 13.9111,9.6987 13.8841,18.5154 -0.0269,8.7547 -5.8662,16.1129 -13.8148,18.3838 z"
     id="path48"
     inkscape:export-xdpi="600"
     inkscape:export-ydpi="600"
     inkscape:connector-curvature="0"
     style="fill:#002677" />
  <path
     d="m 53.9234,43.917977 -4.5382,-1.296 c 0.0616,-0.8433 0.1039,-1.6906 0.1078,-2.5494 0.0038,-0.8589 -0.0347,-1.7061 -0.0924,-2.5456 l 4.5613,-1.2728 c 0.6544,-0.1857 1.0778,-0.6963 0.9893,-1.1993 l -0.7583,-4.4102 c -0.0886,-0.5068 -0.666,-0.8473 -1.3511,-0.7931 l -4.6961,0.3482 c -0.4619,-1.652 -1.0354,-3.2536 -1.7129,-4.801 l 3.8493,-2.7623 c 0.5504,-0.4023 0.7737,-1.0252 0.5234,-1.4701 l -2.2094,-3.8841 c -0.2541,-0.4449 -0.9123,-0.5648 -1.5358,-0.2785 l -4.2996,1.9459 c -0.9893,-1.3811 -2.0709,-2.6887 -3.2372,-3.9112 l 2.6829,-3.9306 c 0.3849,-0.5648 0.3811,-1.2340703 -0.0077,-1.5629003 l -3.3912,-2.88989 c -0.3888,-0.33271 -1.0508,-0.21665 -1.5397,0.26694 L 33.8959,10.229777 C 32.5063,9.2741667 31.0436,8.4153267 29.5232,7.6609367 l 1.1933,-4.6037 c 0.1693,-0.66541 -0.0578,-1.28827 -0.5351,-1.46623 L 26.0127,0.04741627 c -0.4773,-0.1779586 -1.0585,0.1586154 -1.3549,0.7814694 L 22.61,5.0998867 c -2.7714,-0.70797 -5.8701,-1.09096 -8.8571,-1.10257 l 0,3.21872 c 17.922,0 32.5029,14.7086403 32.5029,32.7830403 0,18.0782 -14.5809,32.783 -32.5029,32.7869 l 0,3.1413 c 2.9909,0.0078 5.8701,-0.3559 8.6454,-1.0445 l 2.0285,4.2981 c 0.2926,0.6189 0.8699,0.9478 1.3434,0.7776 l 4.1764,-1.5204 c 0.4812,-0.1741 0.7121,-0.8086 0.5389,-1.4779 l -1.1509,-4.5998 c 1.5243,-0.7428 2.9908,-1.5939 4.3881,-2.5378 l 3.3642,3.3386 c 0.485,0.4797 1.1394,0.5919 1.5243,0.267 l 3.4104,-2.8667 c 0.3926,-0.3288 0.3926,-1.0059 0.0077,-1.5746 l -2.6521,-3.9344 c 1.174,-1.2186 2.2672,-2.5185 3.2603,-3.8919 l 4.2996,1.9808 c 0.6197,0.2824 1.2702,0.1663 1.5243,-0.2747 l 2.2287,-3.8725 c 0.2579,-0.4449 0.0308,-1.0794 -0.5274,-1.4817 l -3.8184,-2.7777 c 0.689,-1.5397 1.2741,-3.1413 1.7437,-4.7894 l 4.7076,0.3791 c 0.6775,0.0503 1.251,-0.2824 1.3395,-0.7853 l 0.7853,-4.4064 c 0.0923,-0.5107 -0.3349,-1.0291 -0.997,-1.2148 z"
     id="path50"
     inkscape:export-xdpi="600"
     inkscape:export-ydpi="600"
     inkscape:connector-curvature="0"
     style="fill:#002677" />
  <path
     d="m 82.5771,24.880477 c 0.666,0 1.3242,0.058 1.9747,0.1431 3.2564,-2.6075 7.402,-4.1666 11.8864,-4.1511 l 0,-12.4183803 c -15.4161,0 -28.2533,11.3196803 -30.8015,26.1443803 l 2.9485,-0.4913 c 2.3711,-5.567 7.9063,-9.2461 13.9919,-9.2267 z"
     id="path52"
     inkscape:export-xdpi="600"
     inkscape:export-ydpi="600"
     inkscape:connector-curvature="0"
     style="fill:#002677" />
  <path
     d="M 64.3554,34.815177 C 66.8266,19.197477 80.2719,7.2200667 96.4425,7.2161967 l 0,-3.14135 c -2.9793,-0.00774 -5.8739,0.35978 -8.6415,1.04453 L 85.7763,0.82517067 c -0.2925,-0.618985 -0.8699,-0.947821 -1.3434,-0.7775999 L 80.2565,1.5640867 c -0.4811,0.17409 -0.7121,0.80855 -0.5389,1.47783 l 1.1509,4.59209 c -1.5281,0.74279 -2.9947,1.59389 -4.3919,2.5416703 L 73.1162,6.8409367 c -0.485,-0.47971 -1.1394,-0.59191 -1.5243,-0.26694 l -3.4104,2.86668 c -0.3926,0.32883 -0.3926,1.0058003 -0.0077,1.5745003 l 2.6483,3.9306 c -1.174,1.2186 -2.2672,2.5185 -3.2642,3.8957 l -4.2957,-1.9807 c -0.6197,-0.2824 -1.2702,-0.1664 -1.5243,0.2785 l -2.2325,3.8687 c -0.2579,0.4449 -0.0308,1.0793 0.5273,1.4817 l 3.8223,2.7815 c -1.405,3.1491 -2.3827,6.5381 -2.8407,10.0934 l 3.3411,-0.5494 z"
     id="path54"
     inkscape:export-xdpi="600"
     inkscape:export-ydpi="600"
     inkscape:connector-curvature="0"
     style="fill:#002677" />
</svg>
