<svg width="246" height="80" viewBox="0 0 246 80" fill="none" xmlns="http://www.w3.org/2000/svg">
<path d="M124.958 21.75L124.931 21.7384C124.184 21.4134 123.072 21.1929 122.167 21.1929C121.909 21.1929 121.659 21.2006 121.405 21.2122C120.993 21.2277 120.57 21.247 120.169 21.2122C120.046 21.2006 119.915 21.1929 119.781 21.1929C119.146 21.1929 118.399 21.514 118.299 22.0324C118.179 22.5972 118.187 23.3013 118.195 23.9822C118.199 24.3961 118.202 24.752 118.187 25.0886C118.149 26.1061 118.091 27.5027 118.091 28.7986C118.091 30.5357 118.091 32.6983 118.553 34.3734C118.799 35.2554 119.246 35.5378 120.397 35.5378C123.36 35.5378 126.182 33.1045 127.433 30.702C128.022 29.5801 128.345 28.2725 128.345 27.0191C128.341 24.5741 127.14 22.7016 124.958 21.75ZM125.243 26.9804C125.243 29.1468 124.084 31.4332 122.356 32.6712L122.337 32.6828C122.106 32.8182 121.89 32.8414 121.698 32.7447C121.34 32.5629 121.297 32.0599 121.301 31.5841C121.166 29.8006 121.236 28.0791 121.297 26.5587L121.301 26.4349C121.336 25.5412 121.37 24.6979 121.37 23.8352C121.367 23.5798 121.378 23.3206 121.547 23.1581C121.628 23.0808 121.736 23.0421 121.852 23.0421C124.357 23.046 125.243 25.166 125.243 26.9804Z" fill="#002677"/>
<path d="M132.529 31.7929C132.521 31.9631 132.518 32.1334 132.518 32.3036C132.518 33.7002 132.96 34.1953 134.207 34.1953C135.012 34.1953 135.539 33.8936 135.778 33.3017C135.832 33.1586 135.897 32.9806 135.897 32.8258C135.897 32.7407 135.874 32.6827 135.816 32.5744C135.543 32.0908 135.585 31.3983 135.62 30.8374L135.624 30.7987C135.632 30.6594 135.639 30.5317 135.639 30.4234C135.639 29.5607 135.689 28.7483 135.739 27.9591L135.743 27.874C135.793 27.0848 135.847 23.3438 135.847 22.3302V22.2838C135.847 22.2451 135.839 22.2103 135.832 22.1754L135.828 22.1561C135.82 22.1174 135.816 22.1058 135.813 22.0749C135.801 22.0246 135.782 21.9859 135.759 21.9472C135.732 21.893 135.712 21.8505 135.685 21.8118C135.424 21.452 134.896 21.2354 134.277 21.2354H134.161C133.692 21.2354 133.083 21.3824 132.914 21.7808C132.787 21.9665 132.729 22.1329 132.729 22.3186C132.729 22.3921 132.741 22.4656 132.764 22.5584L132.768 22.57L132.764 22.5855C132.518 24.7674 132.514 28.2724 132.533 30.1681L132.537 30.7561C132.537 30.9225 132.541 31.0927 132.541 31.259C132.541 31.406 132.537 31.5531 132.533 31.7001L132.529 31.7929Z" fill="#002677"/>
<path d="M148.865 26.8717C148.865 26.0709 147.826 25.7846 147.125 25.7846C146.517 25.7846 145.782 25.9665 145.177 26.1135C144.735 26.2218 144.388 26.303 144.15 26.303C143.734 26.303 143.457 26.0284 143.457 25.6183C143.461 25.1502 143.603 22.7477 144.142 22.5659C144.812 22.3338 146.14 22.268 146.821 22.268C147.098 22.268 147.383 22.2874 147.676 22.3106C147.941 22.3299 148.214 22.3531 148.476 22.3531C149.061 22.3531 149.908 22.0436 149.908 21.4788C149.908 20.3878 147.383 20.3027 146.609 20.3027C144.527 20.3027 141.247 20.8714 140.816 22.0939C140.366 23.3822 140.15 25.1347 140.15 27.4559C140.15 30.0982 140.358 32.3962 140.782 34.4814C140.966 35.3634 141.505 35.7774 142.479 35.7774C143.599 35.7774 144.146 35.3015 144.146 34.3189C144.146 34.0752 144.13 33.8276 144.115 33.5877L144.111 33.5335C144.096 33.286 144.077 32.9997 144.077 32.7134C144.077 32.3304 144.057 32.1756 143.842 31.9281C143.48 31.5102 143.391 29.9086 143.391 29.3825C143.391 28.8331 143.657 28.6165 143.815 28.5352C144.246 28.3147 144.981 28.1871 145.832 28.0439L145.855 28.0401C147.125 27.8234 148.865 27.5255 148.865 26.8717Z" fill="#002677"/>
<path d="M160.921 20.6743C158.511 20.6743 156.583 20.7942 155.193 21.038C154.859 21.096 154.081 21.3126 154.081 22.0477C154.081 24.1097 154.12 26.2065 154.162 28.3536L154.173 28.9842C154.193 29.9127 154.208 30.8296 154.22 31.7464L154.216 32.0211C154.208 32.6749 154.2 33.4912 154.666 33.9206C154.936 34.1837 155.401 34.3346 155.936 34.3346C156.637 34.3346 157.626 34.0096 157.626 33.29C157.626 33.1701 157.595 33.0347 157.561 32.8954L157.557 32.8722C157.518 32.7291 157.476 32.5666 157.464 32.4041C157.399 31.5762 157.368 30.6787 157.368 29.6535C157.368 29.2047 157.73 28.8797 158.227 28.8797C158.5 28.8797 158.769 28.8952 159.031 28.9107L159.116 28.9184C159.351 28.9339 159.589 28.9455 159.832 28.9455C160.417 28.9455 162.326 28.8681 162.326 27.8778C162.326 27.6766 162.253 27.518 162.107 27.3903C161.483 26.841 159.712 26.9067 158.75 26.9454H158.727C158.508 26.9532 158.319 26.9609 158.177 26.9609C157.695 26.9609 157.318 26.6127 157.318 26.1639C157.318 25.7964 157.314 25.425 157.307 25.0536L157.303 24.7944C157.299 24.5043 157.295 24.2141 157.295 23.9317C157.295 23.8273 157.287 23.7344 157.28 23.6416C157.26 23.3592 157.241 23.069 157.457 22.8562C157.607 22.7092 157.826 22.6396 158.154 22.6396C158.585 22.6396 159.027 22.628 159.447 22.6203C159.878 22.6086 160.336 22.597 160.798 22.597C161.483 22.597 163.081 22.5042 163.081 21.6376C163.084 21.2198 162.857 20.6743 160.921 20.6743Z" fill="#002677"/>
<path d="M174.466 34.8838C174.466 34.2029 173.458 33.9476 172.823 33.9476C172.584 33.9476 172.342 33.9747 172.072 34.0095C171.807 34.0443 171.522 34.0753 171.241 34.0753C170.914 34.0753 170.763 33.9244 170.694 33.8006C170.621 33.6691 170.621 33.5221 170.621 33.406C170.621 33.3673 170.621 33.3248 170.617 33.2861C170.459 31.9011 170.355 30.7328 170.355 29.5141C170.355 29.1505 170.606 28.8294 170.96 28.7327L171.333 28.6359C172.807 28.2607 174.771 27.6688 174.771 26.8757C174.771 26.2374 173.874 25.9395 173.269 25.9395C172.746 25.9395 172.149 26.1987 171.71 26.3883C171.372 26.5353 171.191 26.6088 171.025 26.6088C170.667 26.6088 170.425 26.3496 170.425 25.9666C170.425 25.6609 170.444 25.3437 170.459 25.0342L170.471 24.8369C170.479 24.7054 170.486 24.57 170.494 24.4423C170.506 24.2721 170.506 24.1096 170.506 23.9897L170.509 23.893C170.513 23.6415 170.513 23.3784 170.544 23.1192C170.579 22.6743 170.906 22.3997 171.402 22.3997C171.71 22.3997 172.014 22.4113 172.322 22.4229L172.411 22.4267C172.669 22.4345 172.942 22.4461 173.219 22.4461C173.731 22.4461 174.794 22.2294 174.794 21.5524C174.794 21.1617 174.416 20.887 174.097 20.7671C173.546 20.562 172.965 20.5659 172.403 20.5698L170.521 20.5659C169.859 20.5659 169.382 20.5737 168.462 20.6123C167.545 20.6588 167.445 21.1423 167.418 22.3146C167.411 23.2933 167.376 24.2373 167.338 25.3747L167.334 25.4714C167.295 26.5701 167.253 27.8197 167.253 29.0422C167.253 30.5935 167.361 32.1603 167.58 33.8354C167.596 33.9321 167.603 34.0405 167.619 34.1681L167.622 34.2107C167.657 34.6014 167.696 35.0424 167.9 35.2939C168.442 35.9554 170.506 35.9554 171.283 35.9554C173.396 35.9516 174.466 35.5918 174.466 34.8838Z" fill="#002677"/>
<path d="M188.605 33.1547C188.378 33.0348 188.116 32.8955 187.893 32.6711C187.531 32.2997 187.223 31.8935 186.919 31.4912L186.896 31.4602C186.538 30.9844 186.196 30.5356 185.776 30.1487C185.691 30.0714 185.514 29.9128 185.514 29.6536C185.514 29.4679 185.622 29.2976 185.834 29.1506C187.4 27.9591 188.228 26.4542 188.228 24.8023C188.228 21.9975 185.645 20.5312 183.089 20.5312C181.954 20.5312 179.571 20.9839 179.067 21.8466C178.974 22.0013 178.963 22.1793 178.963 22.334C178.963 24.0943 179.028 25.6998 179.09 27.255L179.117 27.9552C179.148 28.7405 179.178 29.553 179.198 30.3847C179.232 31.29 179.217 32.5202 179.205 33.3326C179.202 33.7892 179.198 34.2186 179.198 34.5938C179.198 35.503 179.69 35.944 180.699 35.944C181.134 35.944 181.542 35.8395 181.877 35.6422C182.296 35.383 182.343 35.031 182.366 34.4739C182.4 33.8085 182.396 33.116 182.393 32.4506L182.389 31.6691C182.389 31.1739 182.72 31.1352 182.82 31.1352C183.12 31.1352 183.355 31.4293 183.871 32.0792C184.706 33.1353 186.103 34.9033 187.708 34.9033C188.236 34.9033 188.982 34.6519 189.256 34.2766C189.371 34.1219 189.383 33.9632 189.302 33.7814C189.19 33.4603 188.921 33.321 188.605 33.1547ZM183.058 28.1757C183.012 28.1873 182.951 28.1989 182.881 28.1989C182.72 28.1989 182.335 28.1409 182.262 27.6148C182.189 26.6244 182.142 25.6224 182.115 24.6398L182.069 23.0614C182.069 22.7325 182.254 22.3418 183.139 22.3418C184.525 22.3418 185.156 23.7422 185.156 25.0421C185.156 26.3033 184.379 27.5413 183.228 28.1177L183.201 28.1293L183.178 28.0597L183.035 28.0983L183.058 28.1757Z" fill="#002677"/>
<path d="M202.004 21.2431C202.004 20.6241 201.088 20.2837 200.453 20.2837C200.191 20.2837 199.814 20.3185 199.625 20.4152L199.498 20.4539L199.321 20.4578C199.04 20.4578 198.767 20.4849 198.447 20.5235L198.439 20.4462L198.293 20.4616L198.301 20.539C197.981 20.5738 197.654 20.6087 197.316 20.6087C196.75 20.6087 195.36 20.6783 194.66 21.3437C194.429 21.5565 194.394 21.8389 194.371 22.1909C194.317 23.9009 194.151 25.6108 193.99 27.2666C193.793 29.2783 193.593 31.3597 193.593 33.4101L193.589 33.882C193.578 34.795 193.57 35.5146 193.982 35.8976C194.271 36.1684 194.798 36.2999 195.591 36.2999C196.711 36.2999 200.279 35.7119 201.257 35.1509C201.569 34.9614 201.931 34.5977 201.931 34.2109C201.931 33.5184 200.826 33.2979 200.287 33.2979C199.879 33.2979 199.494 33.4642 199.075 33.6499C198.636 33.8395 198.139 34.0561 197.573 34.0561C197.15 34.0561 196.834 33.7428 196.834 33.3288C196.834 32.6092 196.834 31.8626 196.904 31.1353C196.938 30.7407 197.289 30.3848 197.739 30.288C199.082 29.9747 200.514 29.2706 200.514 28.5858C200.514 28.0017 199.598 27.6303 198.967 27.6303C198.797 27.6303 198.609 27.6806 198.416 27.7309C198.224 27.785 198.005 27.8431 197.785 27.8431C197.627 27.8431 197.258 27.785 197.258 27.2434C197.258 26.903 197.304 26.5509 197.342 26.2685C197.366 26.1099 197.385 25.9667 197.4 25.8313C197.439 25.4483 197.466 25.0615 197.489 24.6862L197.504 24.4193C197.516 24.2413 197.523 24.0672 197.539 23.8931C197.554 23.7036 197.55 23.5295 197.543 23.3361C197.539 23.2316 197.539 23.131 197.539 23.0266C197.539 22.8331 197.6 22.6823 197.72 22.5855C197.893 22.4463 198.101 22.4656 198.255 22.4811L198.289 22.485C198.332 22.4888 198.366 22.4927 198.401 22.4927C199.656 22.4811 202.004 22.1174 202.004 21.2431Z" fill="#002677"/>
<path d="M216.82 20.8018C215.696 20.8018 215.149 21.2931 215.149 22.3028C215.149 22.504 215.165 22.7013 215.18 22.9179L215.184 22.9643C215.203 23.2003 215.222 23.4324 215.222 23.6684V27.2431C215.222 27.7383 214.891 27.7769 214.799 27.7808L214.703 27.7692C214.433 27.6802 214.183 27.3785 213.479 26.4809C212.208 24.86 210.084 22.1519 208.105 22.1519C206.962 22.1519 206.554 22.5427 206.554 23.6491C206.554 25.8078 206.523 27.6222 206.365 29.4559C206.273 30.5895 206.177 31.7655 206.177 32.9377C206.177 33.7888 206.708 34.2028 207.797 34.2028C207.955 34.2028 208.113 34.1834 208.251 34.168L208.302 34.1602C209.287 33.9939 209.395 33.4639 209.395 32.3768C209.395 30.9222 209.526 29.4676 209.653 28.0594L209.703 27.5139C209.703 27.1425 209.937 27.011 210.153 27.011L210.23 27.0187C210.426 27.069 210.542 27.0999 213.309 30.6591L213.698 31.1543C213.794 31.282 213.894 31.4096 213.995 31.545C214.734 32.5238 215.569 33.6341 216.847 33.6341C218.179 33.6341 218.421 33.0345 218.421 31.8506V22.0629C218.417 21.2157 217.894 20.8018 216.82 20.8018Z" fill="#002677"/>
<path d="M228.983 22.1172C229.53 22.1172 229.969 22.3455 230.358 22.5467C230.777 22.7633 231.208 22.9838 231.816 22.9838C232.421 22.9838 233.295 22.6743 233.295 22.1095C233.295 21.711 232.856 21.3938 232.486 21.2004C231.331 20.5775 230.177 20.2642 229.053 20.2642C223.941 20.2642 222.59 25.9201 222.59 28.9106C222.59 32.4427 224.153 36.2146 228.533 36.2146C229.522 36.2146 230.485 36.0135 231.397 35.615L231.636 35.5183C232.336 35.2359 233.295 34.849 233.295 34.1952C233.295 33.6072 232.421 33.2783 231.816 33.2783C231.335 33.2783 230.835 33.5298 230.308 33.8006C229.769 34.0753 229.16 34.3848 228.537 34.3848C228.19 34.3848 227.894 34.2958 227.578 34.0946C226.019 33.0694 225.789 30.3962 225.789 28.8913C225.789 27.5102 226.012 25.483 227.078 23.6802C227.232 23.4132 228.06 22.1172 228.983 22.1172Z" fill="#002677"/>
<path d="M241.782 22.2913C241.955 22.2797 242.19 22.2758 242.417 22.2758H242.475C243.706 22.2604 246.001 22.2371 246.001 21.2893C246.001 20.504 244.8 20.4808 244.665 20.4808C244.103 20.4808 243.56 20.4692 243.152 20.4576C242.906 20.4537 242.656 20.4498 242.409 20.446L242.228 20.4421C241.84 20.4382 241.455 20.4343 241.074 20.4227L240.958 20.4189C240.781 20.415 240.608 20.4111 240.439 20.4111C239.961 20.4111 239.565 20.4343 239.164 20.5504C238.487 20.7477 238.071 21.2158 237.967 21.9122C237.64 24.2605 237.475 26.5043 237.475 28.5817C237.475 29.5644 237.505 30.3807 237.567 31.1583C237.579 31.3246 237.59 31.5065 237.598 31.696L237.602 31.7347C237.702 33.6149 237.913 35.1701 239.542 35.1701H240.604C243.272 35.1701 245.027 34.6865 245.546 33.8083C245.62 33.6922 245.65 33.5917 245.65 33.4756C245.65 32.9417 244.746 32.6013 244.122 32.6013C243.726 32.6013 243.341 32.7638 242.921 32.9417C242.467 33.1352 241.997 33.3363 241.455 33.3363C241.255 33.3363 241.093 33.2783 240.974 33.17C240.766 32.9765 240.773 32.698 240.781 32.493L240.785 32.2531C240.696 31.4716 240.573 30.2956 240.573 29.1234C240.573 28.8912 240.658 28.6939 240.816 28.5547C241.131 28.28 241.643 28.2993 242.051 28.3187H242.074C242.178 28.3264 242.259 28.3303 242.328 28.3303H243.202C244.8 28.3303 245.577 28.0092 245.577 27.3515C245.577 26.4656 244.207 26.4578 244.145 26.4578C243.914 26.4578 243.687 26.4695 243.487 26.4772H243.426C243.214 26.4888 242.964 26.5004 242.706 26.5004H241.478C241.016 26.5004 240.666 26.1677 240.666 25.7267C240.666 25.1657 240.808 23.5409 240.904 23.0109C240.974 22.6047 241.32 22.3223 241.782 22.2913Z" fill="#002677"/>
<path d="M121.301 49.2751C121.313 49.101 121.32 48.9424 121.328 48.7876C121.34 48.6135 121.34 48.4433 121.34 48.2769C121.343 48.0023 121.347 47.7353 121.378 47.4684C121.413 47.0235 121.74 46.7488 122.236 46.7488C122.548 46.7488 122.864 46.7604 123.156 46.772L123.245 46.7759C123.514 46.7875 123.78 46.7952 124.053 46.7952C124.565 46.7952 125.628 46.5786 125.628 45.9016C125.628 45.5109 125.25 45.2362 124.931 45.1201C124.407 44.9228 123.857 44.9228 123.28 44.9228L121.359 44.9189C120.651 44.9189 120.158 44.9267 119.299 44.9654C118.383 45.0118 118.283 45.4954 118.256 46.6676C118.249 47.6309 118.214 48.6096 118.183 49.5536L118.172 49.8205C118.133 50.985 118.091 52.1882 118.091 53.3913C118.091 54.9465 118.199 56.5133 118.418 58.1846C118.433 58.2813 118.441 58.3935 118.453 58.5096L118.46 58.5598C118.495 58.9506 118.533 59.3916 118.737 59.6431C119.276 60.3046 121.343 60.3046 122.121 60.3046C124.23 60.3046 125.3 59.9448 125.3 59.2369C125.3 58.556 124.292 58.3006 123.657 58.3006C123.418 58.3006 123.172 58.3316 122.929 58.3587L122.902 58.3625C122.637 58.3974 122.356 58.4283 122.071 58.4283C121.744 58.4283 121.594 58.2813 121.524 58.1575C121.451 58.0221 121.451 57.879 121.451 57.759C121.451 57.7203 121.451 57.6778 121.447 57.6391C121.29 56.258 121.186 55.0858 121.186 53.8672C121.186 53.5035 121.436 53.1824 121.79 53.0857L122.167 52.989C123.641 52.6137 125.601 52.0218 125.601 51.2287C125.601 50.5904 124.704 50.2925 124.099 50.2925C123.576 50.2925 122.979 50.5517 122.541 50.7413C122.202 50.8883 122.021 50.9618 121.855 50.9618C121.497 50.9618 121.255 50.7026 121.255 50.3196C121.255 50.0062 121.274 49.6774 121.293 49.3602L121.301 49.2751Z" fill="#002677"/>
<path d="M142.448 44.2227C142.217 44.2227 142.013 44.2459 141.829 44.2962C140.901 44.5476 140.878 45.097 140.836 46.0061L140.778 47.0545C140.674 48.9037 140.547 51.2095 140.135 52.7879C140.031 53.1747 139.765 53.2328 139.615 53.2328C139.392 53.2328 139.254 53.1051 139.161 53.0239C139.019 52.8807 138.876 52.7376 138.726 52.5828L138.599 52.4513C137.163 50.9851 134.761 48.5323 132.91 48.5323C132.14 48.5323 131.62 48.8573 131.416 49.4724C130.727 51.6157 130.346 54.0529 130.035 56.3702C130.012 56.5637 129.977 56.7648 129.942 56.9699L129.931 57.0356C129.873 57.3761 129.8 57.7978 129.8 58.173C129.8 58.3046 129.8 58.409 129.819 58.5057C129.935 59.2949 131.339 59.3027 131.397 59.3027C131.536 59.3027 131.682 59.2833 131.832 59.264C132.91 59.0551 132.972 58.1498 133.037 57.1904L133.049 57.0395C133.06 56.8809 133.072 56.7262 133.091 56.5791C133.291 54.7725 133.518 53.4146 133.784 52.4242C133.872 52.0064 134.146 51.9445 134.3 51.9445C134.55 51.9445 134.7 52.0838 134.781 52.1611C135.554 52.8343 136.301 53.6544 136.963 54.3818L137.002 54.4204C137.56 55.0356 138.253 55.7977 138.961 56.4476C139.434 56.8848 140.112 57.144 140.77 57.144C141.39 57.144 141.794 56.9157 142.044 56.4283C143.391 53.8285 143.592 50.8767 143.784 48.0255C143.807 47.6696 143.83 47.3292 143.853 46.9887C143.873 46.7837 143.9 46.5903 143.926 46.4201L143.934 46.3698C143.98 46.0641 144.019 45.774 144.019 45.4916C144.023 44.9113 143.749 44.2227 142.448 44.2227Z" fill="#002677"/>
<path d="M157.707 52.5832C156.899 52.5832 156.006 52.6296 155.417 52.6605C154.647 52.6992 153.85 52.7379 153.057 52.7379C152.395 52.7379 151.633 52.6296 151.633 51.7901C151.633 51.0667 153.257 46.9891 154.431 46.9891C154.57 46.9891 154.651 47.0549 154.785 47.167C155.047 47.3837 155.594 47.8363 156.441 47.8363C157.076 47.8363 158.015 47.4224 158.015 46.8537C158.015 45.9639 155.617 44.9619 154.339 44.9619C150.059 44.9619 148.211 50.7146 148.211 53.6509C148.211 56.8658 150.086 60.3282 154.2 60.3282C158.107 60.3282 159.859 57.3107 159.859 54.3241C159.847 52.7998 159.389 52.5832 157.707 52.5832ZM156.583 55.2758C156.583 56.2004 155.702 58.3862 154.308 58.3862C152.919 58.3862 151.56 56.4596 151.56 55.3377C151.56 55.1558 151.633 54.9972 151.764 54.885C151.952 54.7264 152.214 54.6877 152.476 54.6877C152.611 54.6877 152.741 54.6993 152.865 54.7071L152.922 54.7109C152.98 54.7148 153.034 54.7187 153.08 54.7187C153.507 54.7187 153.962 54.6839 154.331 54.6606L154.508 54.649C154.916 54.622 155.34 54.591 155.752 54.591C156.271 54.5871 156.583 54.8425 156.583 55.2758Z" fill="#002677"/>
<path d="M167.477 47.4029C167.461 47.0779 167.357 46.8458 167.153 46.6717C166.834 46.4047 166.322 46.3467 165.945 46.3467H165.875L165.802 46.3428C165.729 46.3351 165.664 46.339 165.59 46.3428C165.04 46.3699 164.008 46.6369 164.047 47.4415C164.058 47.6466 164.135 47.8207 164.282 47.9716L164.301 47.9909L164.305 48.1611C164.339 48.842 164.324 50.5945 164.301 51.2135L164.278 51.8596C164.236 52.8422 164.228 53.3335 164.216 53.9215C164.209 54.3123 164.201 54.7533 164.182 55.4071L164.162 55.7282C164.143 56.0184 164.12 56.3433 164.135 56.6412C164.155 57.0706 164.27 57.3685 164.49 57.5503C164.705 57.7322 165.028 57.825 165.463 57.825C165.556 57.825 165.656 57.8212 165.764 57.8134C166.233 57.7902 167.061 57.6316 167.303 56.796L167.307 56.7844V56.7727C167.288 56.3704 167.326 55.9952 167.365 55.5967L167.369 55.5696C167.407 55.2137 167.442 54.8887 167.453 54.5096C167.461 53.9254 167.477 53.3529 167.488 52.8035V52.7455C167.523 51.4379 167.557 48.8459 167.473 47.4222L167.477 47.4029Z" fill="#002677"/>
<path d="M184.039 44.397C183.716 44.397 183.25 44.455 182.857 44.7297C182.392 45.0624 182.38 45.7162 182.369 46.3545V46.3971C182.365 46.5789 182.361 46.753 182.346 46.9193V46.9387C182.203 48.7608 182.061 50.6487 181.753 52.4941C181.76 52.8229 181.522 52.9158 181.422 52.939L181.299 52.9661L181.187 52.9042C180.994 52.7958 180.894 52.5714 180.571 51.8055C179.894 50.1961 178.631 47.2017 176.033 45.9444C175.259 45.573 174.474 45.4725 173.935 45.6736C173.188 45.9135 173.069 46.4358 172.903 47.1553L172.873 47.2791C172.13 50.3934 171.922 53.5347 171.818 56.1886C171.81 56.3279 171.795 56.4594 171.783 56.591L171.772 56.6993C171.745 56.9469 171.722 57.1674 171.722 57.3918C171.722 58.2855 172.261 58.7381 173.319 58.7381C173.916 58.7381 174.328 58.6259 174.578 58.3899C174.99 58.0069 174.978 57.2757 174.967 56.502L174.963 56.1113C174.963 53.6276 175.121 51.7242 175.463 50.1265L175.49 50.0491C175.567 49.7899 175.706 49.6622 175.906 49.6622L176.025 49.6854C176.472 49.875 177.08 50.9582 179.128 56.2738L179.147 56.324C179.305 56.7303 179.424 57.0436 179.497 57.2177C179.555 57.357 179.613 57.5079 179.666 57.6703C179.882 58.2584 180.125 58.9277 180.575 59.2565C180.906 59.4925 181.387 59.6279 181.895 59.6279C182.315 59.6279 182.884 59.5312 183.212 59.0669C183.57 58.5833 183.727 57.9141 183.881 57.2641L183.916 57.1287C183.951 56.9856 183.985 56.8424 184.02 56.7109C184.848 53.6972 185.186 50.6758 185.429 47.8594C185.452 47.6234 185.479 47.3874 185.51 47.1553L185.517 47.1012C185.583 46.5944 185.64 46.1147 185.64 45.6311C185.637 44.7916 185.129 44.397 184.039 44.397Z" fill="#002677"/>
<path d="M195.775 44.8226C195.314 44.8226 194.879 44.8149 194.474 44.8033C194.19 44.7956 193.905 44.7917 193.62 44.7917L193.481 44.7878C193.216 44.784 192.954 44.7801 192.692 44.7724L192.584 44.7685C192.434 44.7646 192.292 44.7607 192.149 44.7607C191.799 44.7607 191.43 44.7762 191.072 44.8845C190.356 45.1012 190.132 45.6583 190.071 46.0877C189.79 48.1961 189.647 50.2194 189.647 52.0957C189.647 52.9778 189.674 53.7167 189.728 54.4169C189.74 54.5755 189.748 54.7535 189.759 54.9392C189.855 56.9277 190.144 58.007 191.38 58.007H192.292C194.528 58.007 196.06 57.566 196.488 56.8C196.549 56.6994 196.572 56.6104 196.572 56.5099C196.572 56.0147 195.748 55.7555 195.31 55.7555C194.967 55.7555 194.628 55.9102 194.297 56.0611C193.901 56.2391 193.493 56.4209 193.019 56.4209C192.838 56.4209 192.688 56.3667 192.581 56.2623C192.384 56.0804 192.396 55.8212 192.4 55.6239V55.4112C192.323 54.7148 192.219 53.6664 192.219 52.5909C192.219 52.3704 192.3 52.1808 192.454 52.0532C192.746 51.7978 193.216 51.821 193.574 51.8404L193.643 51.8443C193.693 51.8481 193.735 51.8481 193.774 51.8481H194.524C196.518 51.8481 196.518 51.2059 196.518 50.9932C196.518 50.2233 195.383 50.2156 195.337 50.2156C195.125 50.2156 194.917 50.2272 194.721 50.2349L194.636 50.2388C194.455 50.2465 194.278 50.2542 194.101 50.2542H193.046C192.623 50.2542 192.307 49.9409 192.307 49.5269C192.307 49.024 192.43 47.5617 192.515 47.0781C192.573 46.6989 192.885 46.432 193.304 46.4011C193.458 46.3894 193.651 46.3894 193.912 46.3856C194.952 46.374 196.888 46.3508 196.888 45.5267C196.88 44.8459 195.891 44.8226 195.775 44.8226Z" fill="#002677"/>
<path d="M82.7008 33.8316C86.1613 33.8432 88.9635 36.648 88.9519 40.0949C88.9404 43.5419 86.1266 46.3312 82.6623 46.3196C79.2019 46.308 76.3996 43.5032 76.4112 40.0563C76.4227 36.6093 79.2365 33.82 82.7008 33.8316Z" fill="#E10098"/>
<path d="M82.5081 48.9388C77.6004 48.9233 73.6203 44.9348 73.6357 40.0486C73.6511 35.1625 77.6543 31.1971 82.562 31.2126C87.4698 31.2281 91.4499 35.2167 91.4345 40.1028C91.4191 44.9889 87.4159 48.9543 82.5081 48.9388ZM82.5736 26.2027C76.5649 26.1834 71.4339 29.9863 69.4708 35.3018L55.2556 37.6694L55.2402 42.749L69.4554 44.8071C71.3993 50.1149 76.4957 53.9294 82.4889 53.9487C88.4975 53.9681 93.6247 50.1652 95.5916 44.8535L110.103 42.4859L110.119 37.4063L95.607 35.3444C93.667 30.0366 88.5707 26.2221 82.5736 26.2027Z" fill="#E10098"/>
<path d="M19.9426 39.8822C19.9311 43.3756 17.1519 46.1959 13.7338 46.1881C10.3157 46.1765 7.55196 43.3369 7.56351 39.8435C7.57506 36.3501 10.3542 33.526 13.7723 33.5376C17.1904 33.5531 19.9542 36.3927 19.9426 39.8822Z" fill="#E10098"/>
<path d="M22.5411 39.8939C22.5257 44.8419 18.5726 48.8575 13.7264 48.8459C8.88023 48.8305 4.95017 44.7916 4.96557 39.8436C4.98097 34.8917 8.93412 30.876 13.7803 30.8915C18.6265 30.9031 22.5565 34.942 22.5411 39.8939ZM16.1399 12.3529L11.1051 12.3374L9.06499 26.6785C3.79926 28.6361 0.0193195 33.7775 7.3384e-05 39.8242C-0.0191727 45.8864 3.74922 51.0588 9.0188 53.0396L11.3668 67.3768L16.4016 67.3923L18.4417 53.0512C23.7036 51.0936 27.4874 45.9522 27.5066 39.9016C27.5259 33.8394 23.7575 28.667 18.4879 26.6824L16.1399 12.3529Z" fill="#E10098"/>
<path d="M96.4268 71.547L96.4306 59.2021C91.9463 59.1905 87.7044 57.6044 84.4634 54.9775C83.8129 55.0626 83.1546 55.1129 82.4887 55.1091C76.4262 55.0897 70.9295 51.4029 68.5776 45.8552L65.6445 45.4297C68.2004 60.2389 81.026 71.5393 96.4268 71.547Z" fill="#002677"/>
<path d="M64.3631 45.2438L61.0181 44.7603C61.4684 48.215 62.4153 51.5149 63.778 54.5905L59.9133 57.3682C59.3629 57.7667 59.1358 58.3934 59.3898 58.8383L61.5955 62.7224C61.8495 63.1712 62.5077 63.2873 63.1313 63.001L67.4655 61.0357C68.4509 62.4052 69.5326 63.7012 70.6989 64.9198L67.9852 68.8968C67.6002 69.4616 67.6041 70.1309 67.989 70.4597L71.3802 73.3496C71.769 73.6823 72.4272 73.5663 72.9199 73.0827L76.3418 69.7247C77.7237 70.6725 79.171 71.5314 80.6799 72.2819L79.479 76.9475C79.3096 77.6129 79.5405 78.2358 80.014 78.4137L84.1789 79.9573C84.66 80.1353 85.2374 79.7987 85.5338 79.1758L87.6008 74.8661C90.4262 75.5973 93.3785 75.9997 96.4194 76.0074V72.7887C80.2834 72.7732 66.8612 60.8307 64.3631 45.2438Z" fill="#002677"/>
<path d="M19.0264 58.4013L17.7061 67.6706L17.5521 68.7423L16.482 68.7384L13.7529 68.7268V71.547C30.9974 71.547 45.0279 57.3955 45.0279 39.9981C45.0279 22.6046 30.9974 8.44922 13.7529 8.44922V11.196L16.228 11.2037L17.2711 11.2076L17.4405 12.2444L18.9571 21.5021C26.9866 23.7614 32.8682 31.2008 32.8412 40.0175C32.8143 48.7722 26.975 56.1304 19.0264 58.4013Z" fill="#002677"/>
<path d="M53.9234 43.917L49.3852 42.621C49.4468 41.7777 49.4891 40.9304 49.493 40.0716C49.4968 39.2127 49.4583 38.3655 49.4006 37.526L53.9619 36.2532C54.6163 36.0675 55.0397 35.5569 54.9512 35.0539L54.1929 30.6437C54.1043 30.1369 53.5269 29.7964 52.8418 29.8506L48.1457 30.1988C47.6838 28.5468 47.1103 26.9452 46.4328 25.3978L50.2821 22.6355C50.8325 22.2332 51.0558 21.6103 50.8055 21.1654L48.5961 17.2813C48.342 16.8364 47.6838 16.7165 47.0603 17.0028L42.7607 18.9487C41.7714 17.5676 40.6898 16.26 39.5235 15.0375L42.2064 11.1069C42.5913 10.5421 42.5875 9.87283 42.1987 9.544L38.8075 6.65411C38.4187 6.3214 37.7567 6.43746 37.2678 6.92105L33.8959 10.2288C32.5063 9.27319 31.0436 8.41435 29.5232 7.65996L30.7165 3.05626C30.8858 2.39085 30.6587 1.76799 30.1814 1.59003L26.0127 0.0464396C25.5354 -0.131519 24.9542 0.205055 24.6578 0.827909L22.61 5.09891C19.8386 4.39094 16.7399 4.00795 13.7529 3.99634V7.21506C31.6749 7.21506 46.2558 21.9237 46.2558 39.9981C46.2558 58.0763 31.6749 72.7811 13.7529 72.785V75.9263C16.7438 75.9341 19.623 75.5704 22.3983 74.8818L24.4268 79.1799C24.7194 79.7988 25.2967 80.1277 25.7702 79.9575L29.9466 78.4371C30.4278 78.263 30.6587 77.6285 30.4855 76.9592L29.3346 72.3594C30.8589 71.6166 32.3254 70.7655 33.7227 69.8216L37.0869 73.1602C37.5719 73.6399 38.2263 73.7521 38.6112 73.4272L42.0216 70.5605C42.4142 70.2317 42.4142 69.5546 42.0293 68.9859L39.3772 65.0515C40.5512 63.8329 41.6444 62.533 42.6375 61.1596L46.9371 63.1404C47.5568 63.4228 48.2073 63.3067 48.4614 62.8657L50.6901 58.9932C50.948 58.5483 50.7209 57.9138 50.1627 57.5115L46.3443 54.7338C47.0333 53.1941 47.6184 51.5925 48.088 49.9444L52.7956 50.3235C53.4731 50.3738 54.0466 50.0411 54.1351 49.5382L54.9204 45.1318C55.0127 44.6211 54.5855 44.1027 53.9234 43.917Z" fill="#002677"/>
<path d="M82.5771 24.8795C83.2431 24.8795 83.9013 24.9375 84.5518 25.0226C87.8082 22.4151 91.9538 20.856 96.4382 20.8715V8.45312C81.0221 8.45312 68.1849 19.7728 65.6367 34.5975L68.5852 34.1062C70.9563 28.5392 76.4915 24.8601 82.5771 24.8795Z" fill="#002677"/>
<path d="M64.3554 34.8142C66.8266 19.1965 80.2719 7.21909 96.4425 7.21522V4.07387C93.4632 4.06613 90.5686 4.43365 87.801 5.1184L85.7763 0.824194C85.4838 0.205209 84.9064 -0.123627 84.4329 0.0465941L80.2565 1.56311C79.7754 1.7372 79.5444 2.37166 79.7176 3.04094L80.8685 7.63303C79.3404 8.37582 77.8738 9.22692 76.4766 10.1747L73.1162 6.83996C72.6312 6.36025 71.9768 6.24805 71.5919 6.57302L68.1815 9.4397C67.7889 9.76853 67.7889 10.4455 68.1738 11.0142L70.8221 14.9448C69.6481 16.1634 68.5549 17.4633 67.5579 18.8405L63.2622 16.8598C62.6425 16.5774 61.992 16.6934 61.7379 17.1383L59.5054 21.007C59.2475 21.4519 59.4746 22.0863 60.0327 22.4887L63.855 25.2702C62.45 28.4193 61.4723 31.8083 61.0143 35.3636L64.3554 34.8142Z" fill="#002677"/>
</svg>
