<svg width="73" height="53" viewBox="0 0 73 53" fill="none" xmlns="http://www.w3.org/2000/svg">
<g clip-path="url(#clip0)">
<path d="M13.2705 26.4985C13.2629 28.8109 11.4146 30.6789 9.13878 30.6739C6.86296 30.6663 5.02721 28.7856 5.03224 26.4733C5.03978 24.1609 6.89062 22.2903 9.16393 22.2979C11.4398 22.3054 13.278 24.1861 13.2705 26.4985Z" fill="#FF0098"/>
<path d="M14.9979 26.5063C14.9878 29.7855 12.3549 32.4437 9.13102 32.4336C5.90714 32.4235 3.29183 29.7476 3.30188 26.4709C3.31194 23.1917 5.94235 20.5335 9.16623 20.5436C12.3926 20.5512 15.0079 23.2271 14.9979 26.5063ZM10.7379 8.26742L7.38832 8.25732L6.03036 17.7516C2.52735 19.0517 0.0126207 22.4546 4.70807e-05 26.4608C-0.0125266 30.4747 2.49466 33.9003 6.00019 35.213L7.56183 44.7073L10.9114 44.7174L12.2694 35.2231C15.7724 33.9255 18.2897 30.5201 18.2997 26.5164C18.3123 22.5026 15.8051 19.0769 12.2996 17.7643L10.7379 8.26742Z" fill="#FF0098"/>
<path d="M35.7517 29.1067L32.7391 28.2509C32.7793 27.693 32.802 27.13 32.8045 26.5621C32.807 25.9941 32.7869 25.4311 32.7491 24.8732L35.7794 24.0326C36.2144 23.9089 36.4961 23.5706 36.4382 23.2374L35.9353 20.3167C35.8775 19.9809 35.4927 19.7562 35.0375 19.7916L31.9218 20.0213C31.615 18.9282 31.2328 17.8655 30.7776 16.8405L33.3351 15.0129C33.7022 14.7478 33.8506 14.3338 33.6821 14.041L32.2135 11.4686C32.045 11.1732 31.6075 11.0925 31.19 11.2843L28.3333 12.5718C27.6744 11.6554 26.9552 10.7895 26.1782 9.9792L27.9611 7.37906C28.2176 7.00292 28.2151 6.56367 27.9586 6.34405L25.7029 4.43307C25.4439 4.21344 25.0063 4.28918 24.6794 4.60978L22.4363 6.79844C21.5108 6.16481 20.5401 5.59682 19.5267 5.09699L20.3138 2.0475C20.4245 1.60573 20.2736 1.19172 19.9592 1.0756L17.1805 0.0557401C16.8611 -0.0629072 16.4764 0.159241 16.2777 0.573244L14.9172 3.40058C13.0714 2.93104 11.1401 2.6786 9.15095 2.67355V6.64445L10.7428 6.6495L12.1083 6.65455L12.3296 8.00511L13.4084 14.5661C18.2693 16.3458 21.7346 21.0311 21.7196 26.5267C21.7045 31.982 18.2618 36.6168 13.4461 38.3965L12.5081 44.9499L12.3094 46.3459L10.9037 46.3408L9.14844 46.3358V50.3016C11.0873 50.2966 12.9683 50.0542 14.7714 49.6099L16.1218 52.4575C16.3179 52.8664 16.7002 53.086 17.017 52.9724L19.7958 51.9677C20.1152 51.8516 20.2686 51.4325 20.1554 50.9882L19.3884 47.9388C20.4044 47.4465 21.3776 46.8836 22.308 46.255L24.5486 48.4689C24.8705 48.787 25.3056 48.8602 25.5646 48.6456L27.8329 46.7472C28.0919 46.5276 28.0944 46.0833 27.8354 45.7047L26.0751 43.102C26.8571 42.2967 27.5839 41.4334 28.2478 40.522L31.107 41.8322C31.5194 42.019 31.952 41.9408 32.1205 41.6479L33.6042 39.0857C33.7752 38.7903 33.6243 38.3712 33.2521 38.1037L30.7172 36.2684C31.1774 35.246 31.5647 34.1883 31.879 33.0952L35.0049 33.3451C35.455 33.3805 35.8347 33.1583 35.8951 32.8251L36.4156 29.9069C36.476 29.5711 36.1918 29.2278 35.7517 29.1067Z" fill="#002677"/>
<path d="M54.6426 22.3486C56.9461 22.3486 58.8146 24.199 58.8146 26.4836C58.8146 28.7682 56.9486 30.6186 54.6426 30.6186C52.3366 30.6186 50.4707 28.7682 50.4707 26.4836C50.4707 24.2016 52.3366 22.3486 54.6426 22.3486Z" fill="#FF0098"/>
<path d="M54.6252 32.3525C51.3586 32.3424 48.7106 29.7019 48.7206 26.4656C48.7307 23.2293 51.3938 20.6039 54.6604 20.614C57.9245 20.6241 60.575 23.2646 60.565 26.5009C60.5549 29.7372 57.8893 32.3626 54.6252 32.3525ZM54.6705 17.2969C50.672 17.2843 47.2596 19.8011 45.9519 23.3202L36.494 24.8878L36.4814 28.2503L45.9393 29.6135C47.2319 33.13 50.6243 35.6544 54.6126 35.6671C58.611 35.6797 62.0235 33.1628 63.3312 29.6438L72.9877 28.0762L73.0003 24.7136L63.3437 23.3505C62.0512 19.8365 58.6588 17.3095 54.6705 17.2969Z" fill="#FF0098"/>
<path d="M63.8038 39.2039C61.2186 39.1963 58.8196 38.4087 56.8229 37.0657C56.1137 37.2121 55.3845 37.2929 54.6426 37.2929H54.6074C50.4103 37.2803 46.5879 34.8265 44.81 31.0929L40.4545 30.4644C40.7865 32.4561 41.3674 34.3595 42.1595 36.1519L39.592 37.9871C39.2248 38.2522 39.0765 38.6662 39.2449 38.959L40.7135 41.5314C40.882 41.8267 41.3196 41.9075 41.737 41.7157L44.6038 40.4232C45.2602 41.337 45.9769 42.2029 46.7539 43.0132L44.9659 45.6209C44.7094 45.9971 44.712 46.4363 44.9685 46.6559L47.2242 48.5669C47.4832 48.7865 47.9207 48.7108 48.2477 48.3902L50.4983 46.194C51.4212 46.8276 52.3919 47.3981 53.4029 47.8979L52.6132 50.9499C52.5026 51.3892 52.6535 51.8032 52.9678 51.9193L55.7415 52.9417C56.0584 53.0604 56.4457 52.8382 56.6443 52.4242L58.0073 49.5943C59.8531 50.0639 61.7819 50.3214 63.7711 50.3264L63.8038 39.2039Z" fill="#002677"/>
<path d="M58.1485 3.39533L56.7981 0.545268C56.6019 0.136314 56.2197 -0.08331 55.9028 0.0302885L53.124 1.035C52.8047 1.15113 52.6513 1.57018 52.7644 2.01448L53.5314 5.06144C52.518 5.5537 51.5448 6.11917 50.6169 6.74775L48.3712 4.52879C48.0468 4.21071 47.6143 4.13751 47.3578 4.35208L45.0895 6.25044C44.828 6.47006 44.8254 6.91436 45.0845 7.29302L46.8498 9.90073C46.0677 10.706 45.346 11.5694 44.6846 12.4782L41.8153 11.1629C41.4029 10.9761 40.9704 11.0544 40.8019 11.3472L39.3182 13.9095C39.1472 14.2049 39.2981 14.6239 39.6703 14.8915L42.2177 16.7343C41.3928 18.5721 40.7893 20.5361 40.4498 22.5884L44.8129 21.8664C46.5983 18.1278 50.4333 15.6741 54.6379 15.6741H54.6731C55.4275 15.6766 56.1669 15.7599 56.8861 15.9139C58.8727 14.5987 61.2466 13.8287 63.8016 13.8211V2.69859C61.8552 2.70111 59.9616 2.94598 58.1485 3.39533Z" fill="#002677"/>
</g>
<defs>
<clipPath id="clip0">
<rect width="73" height="53" fill="white"/>
</clipPath>
</defs>
</svg>
